<svg xmlns="http://www.w3.org/2000/svg" width="400" height="400" viewBox="0 0 400 400"><path d="M 220 0 c 74.9946 0 112.4920 0 138.7785 19.0983 a 100.0000 100.0000 0 0 1 22.1232 22.1232 c 19.0983 26.2866 19.0983 63.7839 19.0983 138.7785 L 400 220 c 0 74.9946 0 112.4920 -19.0983 138.7785 a 100.0000 100.0000 0 0 1 -22.1232 22.1232 c -26.2866 19.0983 -63.7839 19.0983 -138.7785 19.0983 L 180 400 c -74.9946 0 -112.4920 0 -138.7785 -19.0983 a 100.0000 100.0000 0 0 1 -22.1232 -22.1232 c -19.0983 -26.2866 -19.0983 -63.7839 -19.0983 -138.7785 L 0 180 c 0 -74.9946 0 -112.4920 19.0983 -138.7785 a 100.0000 100.0000 0 0 1 22.1232 -22.1232 c 26.2866 -19.0983 63.7839 -19.0983 138.7785 -19.0983 Z" fill="#ffffff"/><g transform="translate(20, 20.000004319999988) scale(0.96, 0.96)">
  <defs xmlns="http://www.w3.org/2000/svg" id="defs31"/>
  <sodipodi:namedview xmlns:sodipodi="http://sodipodi.sourceforge.net/DTD/sodipodi-0.dtd" id="namedview31" pagecolor="#ffffff" bordercolor="#000000" borderopacity="0.25" xmlns:inkscape="http://www.inkscape.org/namespaces/inkscape" inkscape:showpageshadow="2" inkscape:pageopacity="0.0" inkscape:pagecheckerboard="0" inkscape:deskcolor="#d1d1d1" inkscape:zoom="1.674" inkscape:cx="250" inkscape:cy="250" inkscape:window-width="1920" inkscape:window-height="1051" inkscape:window-x="-9" inkscape:window-y="-9" inkscape:window-maximized="1" inkscape:current-layer="svg31"/>
  <path xmlns="http://www.w3.org/2000/svg" fill="#000000" d="M 187.265625 3.152344 C 198.207031 2.3125 214.003906 3.714844 224.652344 6.667969 C 225.242188 6.4375 225.847656 6.183594 226.457031 6.019531 C 228.777344 5.398438 231.378906 6.308594 233.371094 7.5 C 242.242188 12.808594 245.910156 27.101562 248.207031 36.527344 C 250.492188 38.636719 252.328125 41.378906 253.824219 44.085938 C 255.574219 47.253906 261.722656 62.566406 260.519531 65.597656 C 260.300781 66.144531 259.984375 66.574219 259.417969 66.792969 C 258.945312 66.980469 258.230469 67.015625 257.773438 66.773438 C 256.351562 66.027344 254.476562 58.679688 253.792969 56.757812 C 253.984375 59.636719 255.402344 63.792969 254.523438 66.554688 C 254.296875 67.273438 253.945312 67.613281 253.28125 67.972656 C 252.875 68.023438 252.53125 68.082031 252.144531 67.910156 C 250.203125 67.042969 249.828125 61.074219 249.101562 59.109375 L 248.988281 58.808594 C 249.105469 61.039062 250.136719 66.425781 248.613281 68.160156 C 248.1875 68.648438 248.046875 68.640625 247.445312 68.667969 C 246.246094 68.171875 245.683594 67.046875 245.351562 65.851562 C 244.6875 63.4375 244.785156 60.355469 244.539062 57.824219 C 244.09375 53.292969 243.464844 48.789062 242.921875 44.269531 C 242.648438 41.984375 242.707031 39.671875 242.425781 37.390625 C 241.953125 33.519531 239.953125 25 237.527344 22.113281 C 238.332031 26.355469 238.796875 30.714844 239.394531 34.996094 C 240.890625 46.105469 242.238281 57.234375 243.433594 68.382812 C 254.804688 74.105469 262.648438 82.699219 265.304688 95.304688 C 265.910156 98.195312 265.488281 101.703125 266.480469 104.433594 C 267.300781 106.6875 269.335938 108.800781 270.71875 110.738281 C 271.488281 111.796875 272.195312 112.898438 272.835938 114.039062 C 273.476562 115.183594 274.046875 116.359375 274.542969 117.570312 C 275.175781 119.140625 275.714844 120.738281 276.160156 122.371094 C 276.605469 124.003906 276.953125 125.65625 277.203125 127.328125 C 277.558594 129.699219 277.664062 132.210938 278.386719 134.5 C 278.996094 136.453125 280.328125 138.367188 281.226562 140.222656 C 286.890625 151.964844 287.035156 164.636719 283.542969 177.039062 C 282.566406 180.503906 281.285156 183.816406 280.109375 187.210938 C 282.566406 190.222656 284.445312 193.695312 286.230469 197.132812 C 294.632812 213.320312 299.621094 231.625 302.546875 249.558594 C 304.9375 250.804688 307.492188 252.15625 308.996094 254.488281 C 310.933594 257.480469 310.34375 261.09375 309.644531 264.363281 C 310.328125 265.210938 310.972656 266.082031 311.578125 266.984375 C 312.183594 267.886719 312.753906 268.8125 313.277344 269.765625 C 313.804688 270.714844 314.285156 271.6875 314.726562 272.679688 C 315.167969 273.671875 315.566406 274.683594 315.917969 275.710938 C 319.324219 285.464844 320.171875 298.632812 315.546875 308.148438 C 313.621094 312.113281 309.988281 315.671875 305.617188 316.742188 C 303.964844 317.148438 302.179688 317.183594 300.570312 317.707031 C 298.453125 318.390625 296.550781 319.695312 294.429688 320.410156 C 290.738281 321.65625 287.484375 321.304688 284.007812 319.613281 C 282.382812 319.921875 280.753906 320.261719 279.097656 320.308594 C 276.273438 320.394531 273.488281 319.757812 271.425781 317.710938 C 268.566406 314.878906 268.09375 310.5625 268 306.761719 C 267.054688 306.773438 266.109375 306.773438 265.164062 306.761719 C 262.335938 306.699219 259.496094 305.53125 257.574219 303.433594 C 255.117188 300.753906 254.347656 296.835938 254.605469 293.300781 C 255.097656 286.570312 261.800781 274.132812 266.144531 269 C 268.363281 266.375 271.015625 264.320312 273.601562 262.078125 C 273.582031 260.175781 273.5625 258.421875 274.113281 256.578125 C 275.179688 252.972656 277.722656 250.816406 280.882812 249.074219 C 280.050781 240.613281 276.316406 226.648438 272.34375 219.234375 C 270.511719 221.835938 267.664062 224.804688 266.53125 227.730469 C 265.503906 230.390625 265.148438 233.390625 264.214844 236.121094 C 258.296875 253.453125 243.289062 264.660156 227.46875 272.332031 C 227.503906 288.234375 225.949219 304.125 225.53125 320.015625 L 228.566406 322.207031 C 238.007812 322.539062 247.328125 324 255.070312 329.8125 C 260.957031 334.230469 265.335938 341.050781 266.332031 348.410156 C 266.792969 351.808594 266.492188 355.230469 264.285156 358.015625 C 260.554688 362.726562 253.621094 364.144531 247.980469 364.699219 C 233.144531 366.15625 218.664062 362.746094 204.925781 357.351562 C 201.914062 356.171875 198.117188 354.964844 195.644531 352.847656 C 194.054688 351.488281 193.472656 350.183594 193.351562 348.125 C 193.425781 342.929688 194.238281 329.964844 195.417969 325.191406 C 196.148438 322.238281 197.800781 320.582031 200.328125 319.054688 C 200.664062 315.777344 200.730469 312.4375 200.875 309.140625 C 201.304688 299.523438 201.320312 289.886719 201.5 280.261719 C 192.730469 281.492188 183.292969 280.960938 174.582031 279.5625 C 174.464844 292.257812 174.628906 304.953125 175.070312 317.648438 C 175.761719 318.027344 176.429688 318.429688 177.039062 318.925781 C 179.382812 320.855469 180.019531 324.746094 180.304688 327.621094 C 180.765625 332.210938 181.964844 346.453125 181.257812 350.289062 C 181.097656 351.15625 180.667969 351.945312 180.085938 352.597656 C 178.710938 354.136719 175.832031 355.234375 173.976562 356.085938 C 163.722656 360.796875 153.171875 364.070312 141.894531 365.019531 C 132.929688 365.777344 115.972656 365.71875 109.050781 359.625 C 107.191406 357.992188 106.199219 355.851562 106.109375 353.378906 C 105.859375 346.308594 110.328125 338.253906 115.019531 333.242188 C 123.71875 323.953125 135.117188 322.820312 147.089844 322.363281 C 148.105469 321.660156 148.988281 320.804688 149.894531 319.96875 C 149.902344 315.132812 149.429688 310.28125 149.277344 305.445312 C 148.871094 293.988281 148.664062 282.527344 148.648438 271.066406 C 145.878906 269.484375 143.035156 268.027344 140.351562 266.296875 C 130.8125 260.136719 122.699219 251.699219 117.640625 241.476562 C 116.644531 239.464844 115.914062 237.34375 115.257812 235.203125 C 114.832031 233.824219 114.53125 232.253906 113.828125 230.980469 C 112.660156 228.863281 110.738281 227.089844 109.179688 225.246094 C 107.796875 223.609375 106.550781 221.898438 105.320312 220.148438 C 103.726562 223.488281 102.703125 227.296875 101.628906 230.828125 C 99.84375 236.695312 98 242.65625 97.011719 248.722656 C 99.082031 249.789062 101.136719 250.914062 102.667969 252.722656 C 105.035156 255.519531 105.105469 258.523438 104.867188 261.972656 C 107.863281 264.183594 110.546875 266.65625 112.933594 269.515625 C 118.058594 275.65625 124.453125 288.140625 123.648438 296.304688 C 123.347656 299.363281 122.253906 302.550781 119.746094 304.492188 C 116.765625 306.796875 113.132812 306.9375 109.566406 306.476562 C 109.546875 308.039062 109.515625 309.601562 109.257812 311.152344 C 108.777344 314.046875 107.59375 317.046875 105.074219 318.75 C 101.753906 320.996094 97.167969 320.261719 93.476562 319.601562 C 92.335938 320.132812 91.179688 320.664062 89.933594 320.902344 C 85.195312 321.808594 81.339844 320.097656 77.511719 317.492188 C 73.453125 317.328125 69.734375 316.214844 66.589844 313.542969 C 61.6875 309.378906 59.976562 303.191406 59.496094 297.007812 C 58.617188 285.75 61.269531 273.199219 68.707031 264.441406 C 68.089844 261.851562 67.691406 259.171875 68.503906 256.574219 C 69.582031 253.140625 72.410156 251.375 75.375 249.742188 C 78.664062 232.707031 83.074219 216.316406 91.066406 200.820312 C 92.734375 197.589844 94.453125 194.144531 96.75 191.320312 C 95.632812 189.035156 94.644531 186.695312 93.792969 184.300781 C 93.652344 183.902344 93.519531 183.5 93.386719 183.097656 C 93.257812 182.699219 93.132812 182.292969 93.011719 181.890625 C 92.886719 181.484375 92.769531 181.078125 92.660156 180.671875 C 92.546875 180.265625 92.4375 179.855469 92.332031 179.449219 C 92.226562 179.039062 92.128906 178.628906 92.035156 178.214844 C 91.9375 177.804688 91.847656 177.394531 91.761719 176.980469 C 91.675781 176.566406 91.59375 176.152344 91.515625 175.738281 C 91.4375 175.320312 91.363281 174.90625 91.292969 174.488281 C 91.226562 174.070312 91.160156 173.652344 91.101562 173.234375 C 91.042969 172.816406 90.988281 172.398438 90.9375 171.980469 C 90.886719 171.558594 90.839844 171.140625 90.796875 170.71875 C 90.753906 170.300781 90.71875 169.878906 90.683594 169.457031 C 90.652344 169.035156 90.625 168.617188 90.601562 168.195312 C 90.578125 167.773438 90.558594 167.351562 90.542969 166.929688 C 90.527344 166.503906 90.519531 166.082031 90.511719 165.660156 C 90.507812 165.238281 90.507812 164.816406 90.507812 164.394531 C 90.511719 163.972656 90.519531 163.550781 90.535156 163.128906 C 90.546875 162.707031 90.5625 162.28125 90.585938 161.859375 C 90.605469 161.4375 90.632812 161.019531 90.664062 160.597656 C 90.695312 160.175781 90.730469 159.753906 90.769531 159.332031 C 90.808594 158.914062 90.851562 158.492188 90.902344 158.074219 C 90.949219 157.652344 91.003906 157.234375 91.058594 156.816406 C 91.117188 156.398438 91.179688 155.980469 91.246094 155.5625 C 91.3125 155.144531 91.382812 154.730469 91.460938 154.3125 C 91.535156 153.898438 91.617188 153.484375 91.699219 153.070312 C 91.785156 152.65625 91.875 152.242188 91.964844 151.832031 C 92.058594 151.417969 92.15625 151.007812 92.261719 150.597656 C 92.363281 150.1875 92.46875 149.78125 92.578125 149.371094 C 92.691406 148.964844 92.804688 148.558594 92.925781 148.152344 C 93.042969 147.75 93.167969 147.34375 93.296875 146.941406 C 93.425781 146.539062 93.558594 146.136719 93.695312 145.738281 C 93.832031 145.339844 93.972656 144.941406 94.117188 144.542969 C 95.34375 141.277344 97.933594 137.128906 98.769531 134.039062 C 99.351562 131.875 99.125 129.4375 99.203125 127.207031 C 99.328125 123.644531 99.589844 119.992188 100.363281 116.511719 C 100.519531 115.796875 100.695312 115.085938 100.886719 114.382812 C 101.078125 113.675781 101.285156 112.976562 101.511719 112.28125 C 101.738281 111.585938 101.980469 110.894531 102.238281 110.210938 C 102.5 109.527344 102.777344 108.851562 103.070312 108.183594 C 103.363281 107.515625 103.671875 106.851562 103.996094 106.199219 C 104.324219 105.542969 104.667969 104.898438 105.023438 104.261719 C 105.382812 103.625 105.753906 102.996094 106.144531 102.375 C 106.535156 101.757812 106.9375 101.148438 107.355469 100.550781 C 108.496094 98.90625 110.101562 97.394531 110.941406 95.585938 C 111.65625 94.046875 112.015625 92.214844 112.492188 90.578125 C 113.324219 87.722656 114.265625 85.007812 115.578125 82.335938 C 122.039062 69.175781 132.023438 62.402344 145.492188 57.800781 C 147.988281 49.058594 150.59375 40.351562 153.304688 31.671875 C 155.089844 26.03125 156.746094 20.171875 159.261719 14.800781 C 160.132812 12.941406 161.179688 11.160156 162.5625 9.628906 C 168.199219 3.394531 179.453125 3.53125 187.265625 3.152344 Z M 187.265625 3.152344 " fill-opacity="1" fill-rule="nonzero" id="path1"/>
  <path xmlns="http://www.w3.org/2000/svg" fill="#721753" d="M 185 58.734375 C 199.058594 58.210938 213.617188 60.09375 226.601562 65.703125 C 229.90625 67.132812 232.910156 68.988281 236.089844 70.632812 C 241.3125 73.332031 246.226562 75.589844 250.675781 79.601562 C 256.511719 84.863281 259.699219 91.582031 260.496094 99.371094 C 260.734375 101.714844 260.617188 104.523438 261.457031 106.734375 C 262.5625 109.660156 267.058594 113.882812 268.875 117.804688 C 270.78125 121.925781 271.851562 126.421875 272.425781 130.914062 C 272.640625 132.601562 272.5 134.402344 273.011719 136.035156 C 273.535156 137.703125 274.894531 139.09375 275.6875 140.640625 C 276.054688 141.375 276.402344 142.117188 276.730469 142.867188 C 277.0625 143.617188 277.371094 144.375 277.664062 145.140625 C 277.953125 145.910156 278.222656 146.683594 278.472656 147.460938 C 278.722656 148.242188 278.953125 149.027344 279.164062 149.820312 C 279.375 150.613281 279.566406 151.410156 279.734375 152.210938 C 279.902344 153.015625 280.050781 153.820312 280.175781 154.628906 C 280.304688 155.441406 280.410156 156.253906 280.496094 157.066406 C 280.582031 157.882812 280.648438 158.699219 280.691406 159.519531 C 281.0625 167.222656 278.996094 175.425781 276.246094 182.59375 C 275.539062 184.4375 274.292969 186.21875 273.785156 188.109375 C 273.207031 190.269531 273.757812 193.035156 273.75 195.285156 C 273.742188 198.53125 273.382812 201.878906 272.617188 205.035156 C 271.289062 210.523438 268.605469 215.789062 265.316406 220.359375 C 264.242188 221.851562 262.707031 223.242188 261.859375 224.855469 C 260.839844 226.796875 260.820312 229.347656 260.242188 231.460938 C 258.382812 238.253906 254.496094 244.964844 249.773438 250.160156 C 240.585938 260.265625 225.589844 268.90625 212.507812 272.582031 C 205.972656 274.417969 199.285156 275.273438 192.515625 275.578125 C 172.050781 275.832031 149.699219 268.796875 134.34375 254.949219 C 128.738281 249.894531 123.5625 242.964844 120.933594 235.824219 C 120.136719 233.652344 119.957031 230.992188 118.925781 228.953125 C 117.671875 226.480469 115.257812 224.355469 113.464844 222.234375 C 112.429688 221.011719 111.46875 219.738281 110.574219 218.410156 C 109.679688 217.082031 108.859375 215.710938 108.117188 214.292969 C 105.558594 209.402344 104.324219 204.761719 104.03125 199.269531 C 103.914062 197.09375 103.960938 194.804688 103.398438 192.683594 C 102.851562 190.640625 101.332031 188.871094 100.453125 186.949219 C 97.753906 181.054688 96.273438 174.441406 95.941406 167.984375 C 95.472656 158.828125 97.117188 150.355469 100.851562 141.988281 C 101.851562 139.75 103.636719 137.539062 104.226562 135.179688 C 104.777344 132.972656 104.304688 130.355469 104.359375 128.074219 C 104.40625 126.203125 104.539062 124.339844 104.765625 122.484375 C 104.992188 120.628906 105.308594 118.789062 105.714844 116.960938 C 106.894531 111.847656 109.007812 107.085938 112.234375 102.925781 C 113.421875 101.390625 115.03125 99.789062 115.875 98.042969 C 116.808594 96.121094 117.011719 93.738281 117.597656 91.679688 C 119.300781 85.691406 122.652344 79.914062 126.84375 75.332031 C 134.167969 67.328125 143.523438 63.09375 154.265625 62.152344 C 157.058594 61.910156 159.964844 62.335938 162.707031 61.953125 C 164.972656 61.636719 167.128906 60.730469 169.371094 60.285156 C 174.523438 59.257812 179.761719 58.953125 185 58.734375 Z M 185 58.734375 " fill-opacity="1" fill-rule="nonzero" id="path2"/>
  <path xmlns="http://www.w3.org/2000/svg" fill="#000000" d="M 140.597656 107.039062 C 138.160156 105.578125 134.585938 102.347656 134.011719 99.410156 C 133.917969 98.941406 133.957031 98.695312 134.101562 98.25 C 134.582031 97.804688 134.699219 97.738281 135.335938 97.574219 C 137.933594 98.792969 136.527344 103.1875 143.898438 105.371094 C 149.792969 103.734375 156.136719 103.535156 161.617188 106.648438 C 167.660156 110.078125 170.761719 116.605469 172.496094 123.074219 C 175.761719 135.28125 175.027344 148.519531 174.953125 161.027344 C 174.941406 163.097656 175.390625 167.792969 174.597656 169.453125 C 174.453125 169.757812 174.078125 169.902344 173.765625 169.984375 C 172.144531 170.421875 157.625 169.792969 154.378906 169.757812 C 154.140625 170.121094 154.183594 169.917969 154.257812 170.339844 C 154.371094 171 154.53125 171.535156 154.261719 172.175781 C 153.707031 172.464844 153.585938 172.414062 152.953125 172.347656 C 147.558594 166.964844 144.515625 163.542969 137.089844 160.804688 C 134.285156 159.769531 130.789062 158.988281 127.8125 158.710938 C 126.335938 158.574219 124.8125 158.742188 123.359375 158.398438 C 122.585938 158.214844 122.046875 157.988281 121.542969 157.355469 C 121.585938 156.914062 121.488281 156.984375 121.800781 156.738281 C 123.140625 155.699219 125.066406 156.023438 126.636719 156.128906 C 126.164062 142.199219 126.277344 126.769531 133.453125 114.363281 C 131.027344 113.835938 129.28125 112.816406 127.339844 111.308594 C 126.371094 110.332031 125.074219 109.214844 124.421875 108.003906 C 124.085938 107.390625 124.09375 106.992188 124.316406 106.34375 C 124.785156 105.957031 124.851562 105.863281 125.449219 105.792969 C 126.4375 106.296875 127.078125 107.347656 127.75 108.207031 C 129.699219 110.539062 131.992188 111.554688 134.902344 112.1875 C 136.703125 110.199219 138.339844 108.515625 140.597656 107.039062 Z M 140.597656 107.039062 " fill-opacity="1" fill-rule="nonzero" id="path3"/>
  <path xmlns="http://www.w3.org/2000/svg" fill="#fefefe" d="M 150.730469 106.691406 C 153.871094 106.546875 157.246094 107.179688 160.027344 108.667969 C 166.164062 111.949219 168.550781 118.363281 170.449219 124.644531 L 170.257812 124.394531 C 168.390625 122.023438 166.003906 120.214844 162.90625 119.902344 C 159.996094 119.605469 157.328125 120.664062 155.097656 122.484375 C 150.25 126.441406 148.652344 132.335938 148.074219 138.300781 C 150.757812 139.402344 153.375 140.5625 155.773438 142.210938 C 153.5625 143.855469 150.75 144.769531 148.214844 145.804688 L 147.917969 150.917969 C 147.707031 155.175781 147.617188 159.4375 147.644531 163.699219 C 142.105469 159.574219 135.949219 157.472656 129.191406 156.332031 C 128.320312 143.273438 128.828125 123.140625 137.664062 112.882812 C 141.199219 108.78125 145.414062 107.058594 150.730469 106.691406 Z M 150.730469 106.691406 " fill-opacity="1" fill-rule="nonzero" id="path4"/>
  <path xmlns="http://www.w3.org/2000/svg" fill="#000000" d="M 230.386719 97.492188 C 231.195312 97.566406 231.53125 97.730469 232.066406 98.316406 C 232.179688 98.746094 232.222656 99.070312 232.113281 99.503906 C 231.324219 102.59375 228.195312 105.425781 225.601562 107.039062 C 227.847656 108.511719 229.484375 110.195312 231.273438 112.179688 C 233.164062 111.757812 234.941406 111.15625 236.523438 109.996094 C 237.898438 108.984375 239.332031 106.195312 241.035156 105.992188 C 241.402344 105.949219 241.414062 106.085938 241.65625 106.316406 C 241.816406 107.222656 241.59375 107.867188 241.128906 108.648438 C 239.382812 111.59375 235.929688 113.484375 232.742188 114.375 C 239.957031 126.890625 239.996094 142.074219 239.535156 156.09375 C 240.425781 155.996094 241.351562 155.855469 242.246094 155.839844 C 242.945312 155.824219 243.8125 156.1875 244.304688 156.6875 C 244.695312 157.085938 244.675781 157.164062 244.675781 157.6875 C 243.433594 158.902344 240.898438 158.398438 239.265625 158.542969 C 238.25 158.632812 237.234375 158.832031 236.234375 159.015625 C 229.917969 160.160156 224.527344 162.304688 219.367188 166.15625 C 218.269531 167.09375 213.683594 172.207031 212.828125 172.394531 C 212.371094 172.234375 212.074219 172.160156 211.871094 171.652344 C 211.585938 170.933594 212.015625 170.359375 212.265625 169.703125 C 210.945312 169.273438 202.628906 169.765625 200.566406 169.8125 C 198.542969 169.859375 192.855469 170.546875 191.511719 169.265625 C 190.929688 166.132812 191.230469 162.371094 191.199219 159.167969 C 191.070312 146.972656 190.621094 134.070312 193.921875 122.210938 C 195.667969 115.929688 198.808594 109.828125 204.710938 106.566406 C 210.136719 103.566406 216.488281 103.703125 222.289062 105.375 L 222.617188 105.28125 C 227.265625 103.964844 228.253906 101.328125 230.386719 97.492188 Z M 230.386719 97.492188 " fill-opacity="1" fill-rule="nonzero" id="path5"/>
  <path xmlns="http://www.w3.org/2000/svg" fill="#fefefe" d="M 214.320312 106.691406 C 217.144531 106.597656 220.0625 107.09375 222.628906 108.296875 C 228.554688 111.082031 231.800781 116.972656 233.886719 122.902344 C 231.957031 121.304688 229.945312 120.152344 227.398438 119.941406 C 224.546875 119.707031 221.949219 120.746094 219.773438 122.550781 C 215.03125 126.488281 213.390625 132.414062 212.871094 138.304688 C 215.5 139.378906 218.152344 140.515625 220.519531 142.101562 C 218.335938 143.863281 215.585938 144.722656 213 145.726562 L 212.453125 156.074219 C 212.371094 159.789062 212.378906 163.5 212.476562 167.214844 C 206.273438 167.417969 200.050781 167.417969 193.84375 167.550781 C 193.75 152.863281 191.324219 124.253906 201.464844 112.476562 C 204.914062 108.464844 209.1875 107.050781 214.320312 106.691406 Z M 214.320312 106.691406 " fill-opacity="1" fill-rule="nonzero" id="path6"/>
  <path xmlns="http://www.w3.org/2000/svg" fill="#42163b" d="M 250.324219 116.417969 C 251.535156 116.46875 252.125 116.742188 253.003906 117.589844 C 261.464844 125.742188 260.757812 140.179688 259.226562 150.800781 C 258.664062 154.707031 257.636719 158.734375 257.535156 162.679688 C 257.460938 165.6875 258.480469 168.683594 259.050781 171.617188 C 259.453125 173.691406 259.578125 175.742188 259.554688 177.855469 C 259.480469 185.457031 258.089844 195.378906 252.40625 200.984375 C 252.140625 201.15625 251.867188 201.34375 251.574219 201.464844 C 251.050781 201.675781 250.492188 201.796875 249.964844 201.5625 C 248.257812 199.632812 252.34375 193.488281 253.109375 191.414062 C 253.675781 189.867188 253.886719 188.132812 254.179688 186.515625 C 254.980469 182.097656 255.492188 177.265625 254.667969 172.808594 C 254.027344 169.34375 252.953125 165.902344 253.074219 162.34375 C 253.1875 158.996094 253.9375 155.605469 254.519531 152.3125 C 255.695312 145.632812 256.382812 138.65625 255.335938 131.917969 C 254.886719 129.015625 254.105469 126.089844 252.859375 123.421875 C 252.078125 121.75 249.835938 119.96875 249.628906 118.148438 C 249.542969 117.394531 249.929688 117.007812 250.324219 116.417969 Z M 250.324219 116.417969 " fill-opacity="1" fill-rule="nonzero" id="path7"/>
  <path xmlns="http://www.w3.org/2000/svg" fill="#42163b" d="M 127.339844 111.308594 C 126.996094 119.417969 126.660156 120.78125 122.296875 127.597656 C 121.101562 129.460938 119.945312 131.480469 119.363281 133.632812 C 118.914062 135.324219 118.566406 137.039062 118.320312 138.773438 C 118.105469 140.316406 118.066406 145.328125 117.488281 146.363281 C 117.339844 146.628906 117.082031 146.8125 116.875 147.039062 C 116.40625 147.1875 116.136719 147.351562 115.675781 147.050781 C 115.25 146.777344 114.914062 146.242188 114.757812 145.765625 C 114.210938 144.0625 114.433594 141.652344 114.542969 139.882812 C 114.871094 134.4375 116.097656 130.121094 118.914062 125.460938 C 120.222656 123.296875 121.53125 121.304688 122.1875 118.824219 C 122.675781 117 122.519531 114.960938 122.664062 113.082031 C 123.074219 107.769531 124.109375 102.707031 126.550781 97.941406 C 128.394531 94.332031 131.15625 92.042969 133.535156 88.910156 C 134.59375 87.511719 135.425781 85.878906 136.300781 84.363281 C 138.621094 80.351562 141.292969 77.339844 145.277344 74.917969 C 146.285156 74.300781 147.757812 73.273438 148.910156 73.035156 C 149.628906 72.882812 150.28125 73.128906 150.871094 73.519531 C 151.054688 73.847656 151.238281 74 151.160156 74.394531 C 150.847656 76.03125 147.007812 77.648438 145.632812 78.601562 C 141.242188 81.644531 139.949219 86.386719 137.234375 90.667969 C 136.207031 92.285156 134.84375 93.675781 133.632812 95.15625 C 130.367188 99.160156 128.691406 103.15625 127.75 108.207031 C 127.078125 107.347656 126.4375 106.296875 125.449219 105.792969 C 124.851562 105.863281 124.785156 105.957031 124.316406 106.34375 C 124.09375 106.992188 124.085938 107.390625 124.421875 108.003906 C 125.074219 109.214844 126.371094 110.332031 127.339844 111.308594 Z M 127.339844 111.308594 " fill-opacity="1" fill-rule="nonzero" id="path8"/>
  <path xmlns="http://www.w3.org/2000/svg" fill="#42163b" d="M 117.164062 185.382812 C 117.691406 185.449219 118.320312 185.566406 118.6875 185.984375 C 119.589844 187.015625 119.121094 191.015625 119.175781 192.421875 C 119.410156 198.589844 121.40625 205.578125 125.160156 210.558594 C 126.25 212 128.03125 213.300781 128.6875 215.007812 C 129.421875 216.925781 129.503906 219.097656 129.816406 221.113281 C 129.917969 221.753906 130.039062 222.390625 130.179688 223.023438 C 130.320312 223.65625 130.480469 224.285156 130.660156 224.910156 C 130.835938 225.53125 131.035156 226.148438 131.25 226.761719 C 131.46875 227.371094 131.703125 227.976562 131.953125 228.574219 C 132.207031 229.171875 132.476562 229.757812 132.765625 230.339844 C 133.054688 230.921875 133.359375 231.492188 133.683594 232.054688 C 134.007812 232.617188 134.347656 233.167969 134.703125 233.710938 C 135.0625 234.25 135.433594 234.78125 135.820312 235.300781 C 138.117188 238.363281 140.878906 241.191406 144.054688 243.347656 C 145.421875 244.277344 147.320312 245.148438 148.460938 246.316406 C 148.984375 246.851562 149.109375 247.414062 149.078125 248.148438 C 148.765625 248.882812 148.402344 249.222656 147.796875 249.734375 C 145.257812 249.550781 143.152344 248.242188 141.152344 246.75 C 133.996094 241.421875 128.148438 233.816406 126.023438 225.042969 C 125.371094 222.34375 125.136719 219.507812 124.726562 216.765625 C 119.597656 210.929688 116.003906 203.515625 115.410156 195.6875 C 115.167969 192.519531 114.976562 187.925781 117.164062 185.382812 Z M 117.164062 185.382812 " fill-opacity="1" fill-rule="nonzero" id="path9"/>
  <path xmlns="http://www.w3.org/2000/svg" fill="#42163b" d="M 237.644531 195.375 C 237.921875 195.414062 238.171875 195.433594 238.441406 195.535156 C 239.136719 195.796875 239.65625 196.949219 240.027344 197.585938 C 238.214844 204.515625 236.230469 210.285156 231.5625 215.847656 C 229.953125 217.765625 228.113281 219.488281 226.589844 221.472656 L 226.425781 221.691406 C 225.863281 226.671875 225.066406 231.375 222.765625 235.890625 C 219.019531 243.25 211.425781 250.148438 203.535156 252.71875 C 202.472656 252.730469 202.054688 252.480469 201.292969 251.761719 C 201.105469 251.15625 201.019531 250.882812 201.539062 250.382812 C 202.753906 249.21875 204.808594 248.460938 206.265625 247.574219 C 210.363281 245.074219 214.113281 241.460938 216.824219 237.503906 C 219.179688 234.066406 220.878906 229.925781 221.441406 225.785156 C 221.707031 223.851562 221.75 221.707031 222.53125 219.902344 C 223.546875 217.542969 226.421875 215.273438 228.128906 213.324219 C 228.746094 212.621094 229.328125 211.886719 229.871094 211.121094 C 230.414062 210.355469 230.914062 209.566406 231.375 208.75 C 232.878906 206.082031 233.949219 203.105469 234.890625 200.199219 C 235.269531 199.023438 235.449219 197.058594 236.105469 196.042969 C 236.472656 195.480469 237.039062 195.503906 237.644531 195.375 Z M 237.644531 195.375 " fill-opacity="1" fill-rule="nonzero" id="path10"/>
  <path xmlns="http://www.w3.org/2000/svg" fill="#000000" d="M 162.738281 178.480469 C 163.023438 178.546875 163.457031 178.605469 163.703125 178.753906 C 164 178.933594 164.234375 179.160156 164.320312 179.496094 C 164.609375 180.601562 163.59375 182.0625 163.097656 183.019531 C 166.527344 185.246094 170.082031 186.710938 174.089844 187.570312 C 183.722656 189.628906 194.726562 188.300781 203.082031 182.9375 C 202.632812 182.050781 201.730469 180.648438 201.839844 179.644531 C 201.902344 179.078125 202.148438 178.988281 202.570312 178.695312 C 204.671875 178.695312 205.84375 183.039062 207.609375 184.351562 C 208.335938 184.894531 208.730469 185.132812 208.921875 186.046875 C 208.730469 186.726562 208.265625 186.988281 207.730469 187.386719 C 206.566406 186.621094 205.570312 185.804688 204.5625 184.847656 C 200.644531 187.582031 196.164062 189.257812 191.46875 190.078125 C 181.464844 191.824219 170.105469 190.890625 161.601562 184.910156 C 160.855469 185.691406 159.867188 186.820312 158.738281 186.957031 C 158.109375 187.035156 157.835938 186.917969 157.332031 186.566406 L 157.242188 185.960938 C 157.753906 184.679688 159.046875 184.050781 159.886719 182.976562 C 160.992188 181.566406 161.609375 179.871094 162.738281 178.480469 Z M 162.738281 178.480469 " fill-opacity="1" fill-rule="nonzero" id="path11"/>
  <path xmlns="http://www.w3.org/2000/svg" fill="#42163b" d="M 253.273438 209.648438 C 253.617188 209.648438 254.027344 209.628906 254.355469 209.710938 C 255.027344 209.875 255.539062 210.324219 255.832031 210.941406 C 257.179688 213.769531 254.964844 221.40625 253.777344 224.328125 C 251.289062 230.457031 246.261719 238.238281 239.929688 240.925781 C 239.234375 240.921875 238.597656 240.917969 238.003906 240.511719 C 237.425781 240.117188 237.207031 239.757812 237.0625 239.089844 C 237.34375 238.0625 238.273438 237.375 239.050781 236.710938 C 243.21875 233.148438 246.355469 229.921875 248.769531 224.910156 C 250.246094 221.84375 250.996094 218.457031 251.515625 215.113281 C 251.726562 213.765625 251.761719 212.050781 252.257812 210.800781 C 252.453125 210.308594 252.871094 209.972656 253.273438 209.648438 Z M 253.273438 209.648438 " fill-opacity="1" fill-rule="nonzero" id="path12"/>
  <path xmlns="http://www.w3.org/2000/svg" fill="#42163b" d="M 237.042969 83.480469 C 237.164062 83.488281 237.28125 83.492188 237.398438 83.5 C 238.953125 83.625 240.273438 84.960938 241.242188 86.078125 C 245.324219 90.785156 248.628906 98.96875 248.085938 105.257812 C 247.972656 106.554688 247.710938 107.140625 246.699219 107.972656 C 246.132812 108.007812 245.410156 108.042969 244.921875 107.714844 C 244.464844 107.40625 244.214844 106.898438 244.054688 106.390625 C 243.597656 104.96875 243.578125 103.375 243.382812 101.902344 C 243.125 99.921875 242.710938 97.851562 242.082031 95.953125 C 241.25 93.464844 239.675781 91.125 238.027344 89.105469 C 237.355469 88.289062 236.484375 87.4375 235.957031 86.523438 C 235.796875 86.246094 235.714844 85.898438 235.714844 85.582031 C 235.714844 84.667969 236.449219 84.070312 237.042969 83.480469 Z M 237.042969 83.480469 " fill-opacity="1" fill-rule="nonzero" id="path13"/>
  <path xmlns="http://www.w3.org/2000/svg" fill="#42163b" d="M 231.695312 245.039062 C 231.941406 245.03125 232.179688 245.015625 232.425781 245.039062 C 233.15625 245.105469 233.789062 245.550781 234.234375 246.109375 C 234.460938 246.921875 234.289062 247.511719 233.914062 248.25 C 231.253906 253.519531 225.777344 257.414062 220.285156 259.226562 C 219.839844 259.207031 219.453125 259.105469 219.050781 258.910156 C 218.371094 258.582031 218.175781 258.125 217.964844 257.441406 C 218.28125 255.285156 221.25 254.785156 222.921875 253.871094 C 224.027344 253.265625 225.066406 252.46875 226.007812 251.628906 C 228.210938 249.660156 229.53125 246.914062 231.695312 245.039062 Z M 231.695312 245.039062 " fill-opacity="1" fill-rule="nonzero" id="path14"/>
  <path xmlns="http://www.w3.org/2000/svg" fill="#fefefe" d="M 138.972656 170.3125 C 139.042969 170.289062 139.109375 170.269531 139.179688 170.253906 C 139.25 170.238281 139.320312 170.222656 139.390625 170.207031 C 139.460938 170.195312 139.53125 170.183594 139.601562 170.171875 C 139.671875 170.160156 139.746094 170.152344 139.816406 170.144531 C 139.886719 170.140625 139.960938 170.132812 140.03125 170.132812 C 140.101562 170.128906 140.175781 170.125 140.246094 170.128906 C 140.316406 170.128906 140.390625 170.128906 140.460938 170.132812 C 140.53125 170.136719 140.605469 170.140625 140.675781 170.148438 C 140.746094 170.15625 140.816406 170.167969 140.890625 170.175781 C 140.960938 170.1875 141.03125 170.199219 141.101562 170.214844 C 141.171875 170.230469 141.242188 170.246094 141.3125 170.261719 C 141.378906 170.28125 141.449219 170.300781 141.519531 170.320312 C 141.585938 170.339844 141.65625 170.363281 141.722656 170.390625 C 141.789062 170.414062 141.855469 170.4375 141.921875 170.464844 C 141.988281 170.496094 142.054688 170.523438 142.117188 170.554688 C 142.183594 170.585938 142.246094 170.617188 142.3125 170.652344 C 142.375 170.6875 142.4375 170.722656 142.496094 170.757812 C 142.558594 170.796875 142.621094 170.835938 142.679688 170.875 C 142.738281 170.914062 142.796875 170.957031 142.855469 171 C 142.910156 171.042969 142.96875 171.085938 143.023438 171.132812 C 143.078125 171.175781 143.132812 171.222656 143.1875 171.273438 C 143.238281 171.320312 143.292969 171.371094 143.339844 171.421875 C 143.390625 171.472656 143.441406 171.523438 143.488281 171.578125 C 143.539062 171.628906 143.585938 171.683594 143.628906 171.742188 C 143.675781 171.796875 143.71875 171.851562 143.761719 171.910156 C 143.804688 171.96875 143.84375 172.027344 143.886719 172.085938 C 143.925781 172.148438 143.960938 172.207031 144 172.269531 C 144.035156 172.332031 144.070312 172.394531 144.105469 172.457031 C 144.140625 172.519531 144.171875 172.582031 144.203125 172.648438 C 144.230469 172.714844 144.261719 172.78125 144.289062 172.847656 C 144.316406 172.914062 144.339844 172.980469 144.367188 173.046875 C 144.390625 173.113281 144.410156 173.183594 144.433594 173.25 C 144.453125 173.320312 144.472656 173.390625 144.488281 173.457031 C 144.507812 173.527344 144.523438 173.597656 144.535156 173.667969 C 144.550781 173.738281 144.5625 173.808594 144.574219 173.878906 C 144.582031 173.953125 144.589844 174.023438 144.597656 174.09375 C 144.605469 174.164062 144.609375 174.238281 144.613281 174.308594 C 144.617188 174.378906 144.617188 174.453125 144.617188 174.523438 C 144.617188 174.59375 144.617188 174.667969 144.613281 174.738281 C 144.609375 174.808594 144.605469 174.882812 144.597656 174.953125 C 144.589844 175.023438 144.582031 175.097656 144.570312 175.167969 C 144.558594 175.238281 144.546875 175.308594 144.53125 175.378906 C 144.519531 175.449219 144.503906 175.519531 144.484375 175.589844 C 144.46875 175.65625 144.449219 175.726562 144.429688 175.796875 C 144.40625 175.863281 144.382812 175.933594 144.359375 176 C 144.335938 176.066406 144.308594 176.132812 144.28125 176.199219 C 144.253906 176.265625 144.226562 176.332031 144.195312 176.398438 C 144.164062 176.460938 144.132812 176.527344 144.097656 176.589844 C 144.0625 176.652344 144.027344 176.714844 143.992188 176.777344 C 143.953125 176.839844 143.917969 176.898438 143.875 176.957031 C 143.835938 177.019531 143.796875 177.078125 143.753906 177.132812 C 143.710938 177.191406 143.664062 177.246094 143.621094 177.304688 C 143.574219 177.359375 143.527344 177.414062 143.480469 177.464844 C 143.429688 177.519531 143.382812 177.570312 143.332031 177.621094 C 143.28125 177.671875 143.226562 177.722656 143.175781 177.769531 C 143.121094 177.816406 143.066406 177.863281 143.011719 177.910156 C 142.957031 177.957031 142.898438 178 142.84375 178.042969 C 142.785156 178.085938 142.726562 178.125 142.667969 178.167969 C 142.605469 178.207031 142.546875 178.246094 142.484375 178.28125 C 142.421875 178.320312 142.359375 178.355469 142.296875 178.386719 C 142.234375 178.421875 142.171875 178.453125 142.105469 178.484375 C 142.039062 178.515625 141.976562 178.542969 141.910156 178.570312 C 141.84375 178.597656 141.777344 178.625 141.707031 178.648438 C 141.640625 178.671875 141.574219 178.695312 141.503906 178.714844 C 141.433594 178.738281 141.367188 178.757812 141.296875 178.773438 C 141.226562 178.792969 141.15625 178.808594 141.085938 178.820312 C 141.015625 178.835938 140.945312 178.847656 140.871094 178.859375 C 140.800781 178.867188 140.730469 178.878906 140.660156 178.882812 C 140.585938 178.890625 140.515625 178.898438 140.441406 178.898438 C 140.371094 178.902344 140.300781 178.90625 140.226562 178.90625 C 140.15625 178.90625 140.085938 178.902344 140.011719 178.898438 C 139.941406 178.898438 139.867188 178.890625 139.796875 178.882812 C 139.726562 178.878906 139.652344 178.867188 139.582031 178.859375 C 139.511719 178.847656 139.441406 178.835938 139.371094 178.820312 C 139.300781 178.804688 139.230469 178.789062 139.160156 178.773438 C 139.089844 178.753906 139.019531 178.738281 138.953125 178.714844 C 138.882812 178.695312 138.816406 178.671875 138.746094 178.648438 C 138.679688 178.625 138.613281 178.597656 138.546875 178.570312 C 138.480469 178.542969 138.414062 178.511719 138.347656 178.480469 C 138.285156 178.453125 138.21875 178.417969 138.15625 178.386719 C 138.09375 178.351562 138.03125 178.316406 137.96875 178.277344 C 137.90625 178.242188 137.847656 178.203125 137.785156 178.164062 C 137.726562 178.125 137.667969 178.082031 137.609375 178.039062 C 137.550781 177.996094 137.496094 177.953125 137.441406 177.90625 C 137.382812 177.859375 137.332031 177.8125 137.277344 177.765625 C 137.222656 177.714844 137.171875 177.667969 137.121094 177.617188 C 137.070312 177.566406 137.019531 177.511719 136.972656 177.460938 C 136.925781 177.40625 136.878906 177.351562 136.832031 177.296875 C 136.785156 177.238281 136.742188 177.183594 136.699219 177.125 C 136.65625 177.066406 136.613281 177.007812 136.574219 176.949219 C 136.535156 176.890625 136.496094 176.828125 136.460938 176.765625 C 136.421875 176.703125 136.386719 176.640625 136.355469 176.578125 C 136.320312 176.515625 136.289062 176.449219 136.257812 176.386719 C 136.226562 176.320312 136.199219 176.253906 136.171875 176.1875 C 136.144531 176.121094 136.117188 176.054688 136.09375 175.988281 C 136.070312 175.917969 136.046875 175.851562 136.027344 175.78125 C 136.003906 175.710938 135.984375 175.644531 135.96875 175.574219 C 135.953125 175.503906 135.9375 175.433594 135.921875 175.363281 C 135.90625 175.292969 135.894531 175.222656 135.886719 175.148438 C 135.875 175.078125 135.867188 175.007812 135.859375 174.9375 C 135.851562 174.863281 135.847656 174.792969 135.84375 174.722656 C 135.839844 174.648438 135.839844 174.578125 135.839844 174.503906 C 135.839844 174.433594 135.84375 174.359375 135.847656 174.289062 C 135.847656 174.21875 135.855469 174.144531 135.863281 174.074219 C 135.871094 174.003906 135.878906 173.929688 135.890625 173.859375 C 135.898438 173.789062 135.914062 173.71875 135.925781 173.648438 C 135.941406 173.578125 135.957031 173.507812 135.972656 173.4375 C 135.992188 173.367188 136.011719 173.296875 136.03125 173.230469 C 136.054688 173.160156 136.078125 173.09375 136.101562 173.023438 C 136.125 172.957031 136.152344 172.890625 136.179688 172.824219 C 136.207031 172.757812 136.234375 172.691406 136.265625 172.628906 C 136.296875 172.5625 136.332031 172.5 136.363281 172.433594 C 136.398438 172.371094 136.433594 172.308594 136.472656 172.246094 C 136.507812 172.1875 136.546875 172.125 136.585938 172.066406 C 136.628906 172.003906 136.667969 171.945312 136.710938 171.890625 C 136.753906 171.832031 136.800781 171.777344 136.84375 171.71875 C 136.890625 171.664062 136.9375 171.609375 136.988281 171.558594 C 137.035156 171.503906 137.085938 171.453125 137.136719 171.402344 C 137.1875 171.351562 137.238281 171.300781 137.292969 171.253906 C 137.347656 171.203125 137.402344 171.160156 137.457031 171.113281 C 137.511719 171.066406 137.570312 171.023438 137.628906 170.980469 C 137.6875 170.9375 137.746094 170.898438 137.804688 170.855469 C 137.863281 170.816406 137.925781 170.78125 137.988281 170.742188 C 138.050781 170.707031 138.113281 170.671875 138.175781 170.636719 C 138.238281 170.601562 138.304688 170.570312 138.367188 170.539062 C 138.433594 170.511719 138.5 170.480469 138.566406 170.453125 C 138.632812 170.425781 138.699219 170.402344 138.769531 170.378906 C 138.835938 170.351562 138.902344 170.332031 138.972656 170.3125 Z M 138.972656 170.3125 " fill-opacity="1" fill-rule="nonzero" id="path15"/>
  <path xmlns="http://www.w3.org/2000/svg" fill="#fefefe" d="M 234.484375 170.3125 C 234.5625 170.285156 234.640625 170.265625 234.722656 170.246094 C 234.800781 170.226562 234.882812 170.210938 234.964844 170.195312 C 235.046875 170.179688 235.128906 170.167969 235.210938 170.160156 C 235.292969 170.148438 235.375 170.140625 235.457031 170.136719 C 235.539062 170.132812 235.621094 170.128906 235.707031 170.128906 C 235.789062 170.128906 235.871094 170.128906 235.953125 170.132812 C 236.035156 170.136719 236.117188 170.144531 236.199219 170.152344 C 236.28125 170.160156 236.363281 170.171875 236.445312 170.1875 C 236.527344 170.199219 236.609375 170.214844 236.691406 170.234375 C 236.769531 170.25 236.851562 170.269531 236.929688 170.292969 C 237.007812 170.316406 237.089844 170.339844 237.167969 170.367188 C 237.246094 170.394531 237.320312 170.421875 237.398438 170.453125 C 237.476562 170.488281 237.550781 170.519531 237.625 170.554688 C 237.699219 170.589844 237.773438 170.628906 237.847656 170.667969 C 237.917969 170.707031 237.988281 170.75 238.058594 170.792969 C 238.128906 170.835938 238.199219 170.882812 238.265625 170.929688 C 238.335938 170.980469 238.398438 171.027344 238.464844 171.078125 C 238.53125 171.132812 238.59375 171.183594 238.65625 171.238281 C 238.714844 171.292969 238.777344 171.351562 238.835938 171.410156 C 238.894531 171.46875 238.949219 171.527344 239.003906 171.589844 C 239.0625 171.652344 239.113281 171.714844 239.164062 171.777344 C 239.21875 171.84375 239.265625 171.910156 239.316406 171.976562 C 239.363281 172.042969 239.410156 172.113281 239.453125 172.183594 C 239.496094 172.253906 239.539062 172.324219 239.578125 172.398438 C 239.617188 172.46875 239.65625 172.542969 239.691406 172.617188 C 239.726562 172.691406 239.761719 172.765625 239.792969 172.84375 C 239.824219 172.921875 239.855469 172.996094 239.882812 173.074219 C 239.910156 173.152344 239.933594 173.230469 239.957031 173.3125 C 239.980469 173.390625 240 173.472656 240.015625 173.550781 C 240.035156 173.632812 240.050781 173.714844 240.066406 173.796875 C 240.078125 173.875 240.089844 173.957031 240.097656 174.039062 C 240.109375 174.125 240.113281 174.207031 240.117188 174.289062 C 240.121094 174.347656 240.125 174.410156 240.125 174.46875 C 240.125 174.53125 240.125 174.59375 240.121094 174.652344 C 240.121094 174.714844 240.117188 174.773438 240.113281 174.835938 C 240.109375 174.894531 240.101562 174.957031 240.097656 175.015625 C 240.089844 175.078125 240.082031 175.136719 240.070312 175.199219 C 240.0625 175.257812 240.050781 175.316406 240.039062 175.378906 C 240.027344 175.4375 240.015625 175.496094 240 175.554688 C 239.984375 175.613281 239.96875 175.671875 239.953125 175.730469 C 239.9375 175.789062 239.917969 175.847656 239.898438 175.90625 C 239.878906 175.964844 239.859375 176.019531 239.835938 176.078125 C 239.816406 176.132812 239.792969 176.191406 239.769531 176.246094 C 239.746094 176.300781 239.71875 176.359375 239.695312 176.414062 C 239.667969 176.46875 239.640625 176.523438 239.613281 176.574219 C 239.582031 176.628906 239.554688 176.683594 239.523438 176.734375 C 239.492188 176.789062 239.460938 176.839844 239.425781 176.890625 C 239.394531 176.941406 239.359375 176.992188 239.324219 177.042969 C 239.289062 177.089844 239.253906 177.140625 239.21875 177.1875 C 239.179688 177.238281 239.140625 177.285156 239.101562 177.332031 C 239.0625 177.378906 239.023438 177.421875 238.984375 177.46875 C 238.941406 177.511719 238.902344 177.558594 238.859375 177.601562 C 238.816406 177.644531 238.773438 177.6875 238.726562 177.726562 C 238.683594 177.769531 238.636719 177.808594 238.589844 177.847656 C 238.546875 177.890625 238.496094 177.925781 238.449219 177.964844 C 238.402344 178.003906 238.355469 178.039062 238.304688 178.074219 C 238.253906 178.109375 238.207031 178.144531 238.15625 178.179688 C 238.105469 178.210938 238.050781 178.246094 238 178.277344 C 237.949219 178.308594 237.894531 178.335938 237.84375 178.367188 C 237.789062 178.394531 237.734375 178.425781 237.679688 178.453125 C 237.625 178.476562 237.570312 178.503906 237.515625 178.527344 C 237.460938 178.554688 237.402344 178.578125 237.347656 178.597656 C 237.289062 178.621094 237.234375 178.644531 237.175781 178.664062 C 237.117188 178.683594 237.058594 178.703125 237.003906 178.71875 C 236.933594 178.738281 236.863281 178.757812 236.792969 178.777344 C 236.722656 178.792969 236.65625 178.808594 236.582031 178.824219 C 236.511719 178.835938 236.441406 178.847656 236.371094 178.859375 C 236.300781 178.871094 236.230469 178.878906 236.15625 178.886719 C 236.085938 178.890625 236.015625 178.898438 235.941406 178.902344 C 235.871094 178.902344 235.796875 178.90625 235.726562 178.90625 C 235.65625 178.90625 235.582031 178.902344 235.511719 178.898438 C 235.4375 178.894531 235.367188 178.890625 235.296875 178.882812 C 235.222656 178.875 235.152344 178.867188 235.082031 178.855469 C 235.011719 178.847656 234.941406 178.832031 234.871094 178.820312 C 234.800781 178.804688 234.730469 178.789062 234.660156 178.773438 C 234.589844 178.753906 234.519531 178.734375 234.453125 178.714844 C 234.382812 178.691406 234.316406 178.667969 234.246094 178.644531 C 234.179688 178.621094 234.113281 178.59375 234.046875 178.566406 C 233.980469 178.539062 233.914062 178.511719 233.847656 178.480469 C 233.785156 178.449219 233.71875 178.417969 233.65625 178.382812 C 233.59375 178.347656 233.53125 178.3125 233.46875 178.273438 C 233.40625 178.238281 233.347656 178.199219 233.289062 178.160156 C 233.226562 178.121094 233.167969 178.078125 233.113281 178.035156 C 233.054688 177.992188 232.996094 177.949219 232.941406 177.902344 C 232.886719 177.855469 232.832031 177.808594 232.777344 177.761719 C 232.726562 177.710938 232.671875 177.664062 232.625 177.613281 C 232.574219 177.558594 232.523438 177.507812 232.476562 177.453125 C 232.425781 177.402344 232.378906 177.347656 232.335938 177.289062 C 232.289062 177.234375 232.246094 177.179688 232.203125 177.121094 C 232.160156 177.0625 232.117188 177.003906 232.078125 176.945312 C 232.039062 176.882812 232 176.824219 231.964844 176.761719 C 231.925781 176.699219 231.890625 176.636719 231.859375 176.574219 C 231.824219 176.511719 231.792969 176.445312 231.761719 176.378906 C 231.730469 176.316406 231.703125 176.25 231.675781 176.183594 C 231.648438 176.117188 231.621094 176.050781 231.597656 175.980469 C 231.574219 175.914062 231.550781 175.84375 231.53125 175.777344 C 231.511719 175.707031 231.492188 175.636719 231.472656 175.570312 C 231.457031 175.5 231.441406 175.429688 231.429688 175.359375 C 231.414062 175.289062 231.402344 175.214844 231.390625 175.144531 C 231.382812 175.074219 231.371094 175.003906 231.367188 174.929688 C 231.359375 174.859375 231.355469 174.789062 231.351562 174.714844 C 231.347656 174.644531 231.347656 174.574219 231.347656 174.5 C 231.347656 174.429688 231.347656 174.355469 231.351562 174.285156 C 231.355469 174.214844 231.363281 174.140625 231.371094 174.070312 C 231.375 174 231.386719 173.925781 231.394531 173.855469 C 231.40625 173.785156 231.421875 173.714844 231.433594 173.644531 C 231.449219 173.574219 231.464844 173.503906 231.484375 173.433594 C 231.5 173.363281 231.519531 173.292969 231.539062 173.226562 C 231.5625 173.15625 231.585938 173.089844 231.609375 173.019531 C 231.632812 172.953125 231.660156 172.886719 231.6875 172.820312 C 231.714844 172.753906 231.746094 172.6875 231.777344 172.625 C 231.808594 172.558594 231.839844 172.496094 231.875 172.433594 C 231.90625 172.367188 231.941406 172.304688 231.980469 172.246094 C 232.019531 172.183594 232.058594 172.121094 232.097656 172.0625 C 232.136719 172.003906 232.179688 171.945312 232.222656 171.886719 C 232.265625 171.828125 232.308594 171.773438 232.355469 171.71875 C 232.402344 171.664062 232.449219 171.609375 232.496094 171.554688 C 232.546875 171.5 232.59375 171.449219 232.644531 171.398438 C 232.695312 171.347656 232.75 171.300781 232.804688 171.25 C 232.855469 171.203125 232.910156 171.15625 232.96875 171.113281 C 233.023438 171.066406 233.078125 171.023438 233.136719 170.980469 C 233.195312 170.9375 233.253906 170.894531 233.3125 170.855469 C 233.375 170.816406 233.433594 170.777344 233.496094 170.742188 C 233.558594 170.703125 233.621094 170.667969 233.683594 170.636719 C 233.75 170.601562 233.8125 170.570312 233.878906 170.539062 C 233.945312 170.511719 234.007812 170.480469 234.074219 170.453125 C 234.140625 170.425781 234.210938 170.402344 234.277344 170.378906 C 234.34375 170.351562 234.414062 170.332031 234.484375 170.3125 Z M 234.484375 170.3125 " fill-opacity="1" fill-rule="nonzero" id="path16"/>
  <path xmlns="http://www.w3.org/2000/svg" fill="#fefefe" d="M 227.027344 181.050781 C 227.117188 181.023438 227.210938 181 227.304688 180.976562 C 227.402344 180.957031 227.496094 180.9375 227.589844 180.921875 C 227.6875 180.910156 227.78125 180.894531 227.878906 180.886719 C 227.976562 180.878906 228.074219 180.875 228.167969 180.871094 C 228.265625 180.867188 228.363281 180.871094 228.460938 180.875 C 228.554688 180.878906 228.652344 180.882812 228.75 180.894531 C 228.84375 180.90625 228.941406 180.917969 229.035156 180.933594 C 229.132812 180.953125 229.226562 180.972656 229.320312 180.996094 C 229.414062 181.019531 229.507812 181.042969 229.601562 181.074219 C 229.691406 181.101562 229.785156 181.132812 229.875 181.167969 C 229.964844 181.203125 230.050781 181.242188 230.140625 181.285156 C 230.226562 181.324219 230.3125 181.367188 230.398438 181.414062 C 230.484375 181.460938 230.566406 181.511719 230.648438 181.5625 C 230.730469 181.617188 230.808594 181.671875 230.886719 181.730469 C 230.964844 181.785156 231.039062 181.847656 231.113281 181.910156 C 231.1875 181.972656 231.261719 182.035156 231.328125 182.105469 C 231.398438 182.171875 231.464844 182.242188 231.53125 182.3125 C 231.597656 182.382812 231.660156 182.457031 231.71875 182.535156 C 231.777344 182.609375 231.835938 182.6875 231.890625 182.765625 C 231.945312 182.847656 232 182.929688 232.046875 183.011719 C 232.097656 183.09375 232.144531 183.179688 232.1875 183.265625 C 232.234375 183.351562 232.273438 183.441406 232.3125 183.527344 C 232.351562 183.617188 232.386719 183.707031 232.417969 183.800781 C 232.449219 183.890625 232.476562 183.980469 232.503906 184.074219 C 232.53125 184.167969 232.554688 184.261719 232.574219 184.359375 C 232.59375 184.453125 232.609375 184.546875 232.625 184.644531 C 232.636719 184.738281 232.648438 184.835938 232.65625 184.933594 C 232.660156 185.027344 232.667969 185.125 232.667969 185.222656 C 232.667969 185.320312 232.664062 185.414062 232.660156 185.511719 C 232.652344 185.609375 232.644531 185.703125 232.632812 185.800781 C 232.621094 185.898438 232.605469 185.992188 232.585938 186.085938 C 232.570312 186.183594 232.546875 186.277344 232.523438 186.371094 C 232.5 186.464844 232.472656 186.558594 232.441406 186.648438 C 232.410156 186.742188 232.375 186.832031 232.339844 186.921875 C 232.304688 187.011719 232.261719 187.097656 232.222656 187.1875 C 232.179688 187.273438 232.132812 187.359375 232.085938 187.441406 C 232.035156 187.527344 231.984375 187.609375 231.933594 187.6875 C 231.878906 187.769531 231.824219 187.847656 231.761719 187.925781 C 231.703125 188.003906 231.644531 188.078125 231.578125 188.148438 C 231.515625 188.222656 231.449219 188.292969 231.382812 188.363281 C 231.3125 188.429688 231.242188 188.496094 231.167969 188.558594 C 231.097656 188.625 231.023438 188.683594 230.945312 188.742188 C 230.867188 188.800781 230.789062 188.859375 230.707031 188.914062 C 230.628906 188.964844 230.546875 189.015625 230.460938 189.066406 C 230.378906 189.113281 230.292969 189.160156 230.207031 189.203125 C 230.117188 189.242188 230.03125 189.285156 229.941406 189.320312 C 229.851562 189.355469 229.761719 189.390625 229.667969 189.421875 C 229.578125 189.453125 229.484375 189.480469 229.390625 189.503906 C 229.320312 189.523438 229.253906 189.539062 229.183594 189.550781 C 229.113281 189.566406 229.042969 189.582031 228.972656 189.589844 C 228.902344 189.601562 228.832031 189.613281 228.761719 189.621094 C 228.691406 189.628906 228.621094 189.632812 228.550781 189.636719 C 228.480469 189.644531 228.40625 189.644531 228.335938 189.648438 C 228.265625 189.648438 228.195312 189.648438 228.125 189.644531 C 228.054688 189.640625 227.980469 189.636719 227.910156 189.632812 C 227.839844 189.625 227.769531 189.617188 227.699219 189.609375 C 227.628906 189.597656 227.558594 189.589844 227.488281 189.574219 C 227.417969 189.5625 227.347656 189.546875 227.28125 189.53125 C 227.210938 189.515625 227.140625 189.496094 227.074219 189.476562 C 227.003906 189.457031 226.9375 189.4375 226.871094 189.414062 C 226.804688 189.390625 226.734375 189.367188 226.667969 189.339844 C 226.605469 189.316406 226.539062 189.289062 226.472656 189.257812 C 226.410156 189.230469 226.34375 189.199219 226.28125 189.167969 C 226.21875 189.132812 226.15625 189.101562 226.09375 189.066406 C 226.03125 189.03125 225.972656 188.992188 225.910156 188.953125 C 225.851562 188.917969 225.792969 188.875 225.734375 188.835938 C 225.675781 188.792969 225.621094 188.75 225.566406 188.707031 C 225.507812 188.664062 225.453125 188.617188 225.398438 188.570312 C 225.347656 188.523438 225.292969 188.476562 225.242188 188.429688 C 225.191406 188.378906 225.140625 188.328125 225.09375 188.277344 C 225.042969 188.226562 224.996094 188.171875 224.949219 188.117188 C 224.902344 188.066406 224.859375 188.011719 224.816406 187.953125 C 224.769531 187.898438 224.730469 187.839844 224.6875 187.78125 C 224.648438 187.722656 224.609375 187.664062 224.570312 187.605469 C 224.53125 187.546875 224.496094 187.484375 224.460938 187.421875 C 224.425781 187.359375 224.390625 187.296875 224.359375 187.234375 C 224.328125 187.171875 224.296875 187.105469 224.269531 187.042969 C 224.238281 186.976562 224.210938 186.910156 224.1875 186.84375 C 224.160156 186.777344 224.136719 186.710938 224.113281 186.644531 C 224.089844 186.578125 224.070312 186.507812 224.050781 186.441406 C 224.03125 186.371094 224.015625 186.304688 224 186.234375 C 223.984375 186.164062 223.96875 186.09375 223.957031 186.023438 C 223.945312 185.957031 223.933594 185.886719 223.925781 185.816406 C 223.914062 185.746094 223.910156 185.671875 223.902344 185.601562 C 223.898438 185.53125 223.894531 185.460938 223.890625 185.390625 C 223.890625 185.320312 223.886719 185.246094 223.890625 185.175781 C 223.890625 185.105469 223.894531 185.035156 223.898438 184.964844 C 223.902344 184.894531 223.910156 184.820312 223.917969 184.75 C 223.925781 184.679688 223.9375 184.609375 223.949219 184.539062 C 223.960938 184.46875 223.972656 184.402344 223.988281 184.332031 C 224.003906 184.261719 224.019531 184.191406 224.039062 184.125 C 224.058594 184.054688 224.078125 183.988281 224.097656 183.917969 C 224.121094 183.851562 224.144531 183.785156 224.167969 183.71875 C 224.191406 183.652344 224.21875 183.585938 224.246094 183.519531 C 224.277344 183.453125 224.304688 183.390625 224.335938 183.328125 C 224.367188 183.261719 224.402344 183.199219 224.4375 183.136719 C 224.46875 183.074219 224.503906 183.015625 224.542969 182.953125 C 224.582031 182.894531 224.617188 182.832031 224.660156 182.773438 C 224.699219 182.714844 224.742188 182.660156 224.785156 182.601562 C 224.828125 182.546875 224.871094 182.488281 224.917969 182.4375 C 224.960938 182.382812 225.011719 182.328125 225.058594 182.277344 C 225.105469 182.222656 225.15625 182.171875 225.207031 182.121094 C 225.257812 182.074219 225.308594 182.023438 225.363281 181.976562 C 225.414062 181.929688 225.46875 181.882812 225.527344 181.839844 C 225.582031 181.796875 225.636719 181.753906 225.695312 181.710938 C 225.753906 181.667969 225.808594 181.628906 225.871094 181.589844 C 225.929688 181.550781 225.988281 181.511719 226.050781 181.476562 C 226.113281 181.441406 226.175781 181.40625 226.238281 181.371094 C 226.300781 181.339844 226.363281 181.308594 226.429688 181.277344 C 226.492188 181.25 226.558594 181.21875 226.625 181.191406 C 226.6875 181.167969 226.753906 181.140625 226.824219 181.117188 C 226.890625 181.09375 226.957031 181.074219 227.027344 181.050781 Z M 227.027344 181.050781 " fill-opacity="1" fill-rule="nonzero" id="path17"/>
  <path xmlns="http://www.w3.org/2000/svg" fill="#fefefe" d="M 131.519531 181.054688 C 131.613281 181.027344 131.707031 181 131.800781 180.980469 C 131.898438 180.957031 131.992188 180.941406 132.085938 180.925781 C 132.183594 180.910156 132.28125 180.898438 132.375 180.890625 C 132.472656 180.878906 132.570312 180.875 132.667969 180.871094 C 132.761719 180.867188 132.859375 180.871094 132.957031 180.875 C 133.054688 180.878906 133.152344 180.886719 133.246094 180.894531 C 133.34375 180.90625 133.4375 180.917969 133.535156 180.9375 C 133.628906 180.953125 133.726562 180.972656 133.820312 180.996094 C 133.914062 181.019531 134.007812 181.042969 134.097656 181.074219 C 134.191406 181.101562 134.285156 181.136719 134.375 181.171875 C 134.464844 181.207031 134.554688 181.246094 134.640625 181.285156 C 134.730469 181.328125 134.816406 181.371094 134.898438 181.417969 C 134.984375 181.464844 135.066406 181.515625 135.148438 181.566406 C 135.230469 181.617188 135.3125 181.675781 135.390625 181.730469 C 135.46875 181.789062 135.542969 181.847656 135.617188 181.914062 C 135.691406 181.976562 135.761719 182.039062 135.832031 182.109375 C 135.902344 182.175781 135.96875 182.246094 136.035156 182.316406 C 136.097656 182.390625 136.160156 182.460938 136.222656 182.539062 C 136.28125 182.613281 136.339844 182.691406 136.394531 182.773438 C 136.449219 182.851562 136.5 182.933594 136.550781 183.019531 C 136.601562 183.101562 136.648438 183.1875 136.691406 183.273438 C 136.734375 183.359375 136.777344 183.445312 136.8125 183.535156 C 136.851562 183.625 136.886719 183.714844 136.917969 183.808594 C 136.953125 183.898438 136.980469 183.992188 137.007812 184.085938 C 137.03125 184.179688 137.054688 184.273438 137.074219 184.367188 C 137.09375 184.460938 137.109375 184.558594 137.125 184.652344 C 137.136719 184.75 137.148438 184.847656 137.15625 184.941406 C 137.160156 185.039062 137.164062 185.136719 137.167969 185.234375 C 137.167969 185.332031 137.164062 185.425781 137.160156 185.523438 C 137.152344 185.621094 137.144531 185.71875 137.132812 185.8125 C 137.117188 185.910156 137.105469 186.003906 137.085938 186.101562 C 137.066406 186.195312 137.042969 186.289062 137.019531 186.382812 C 136.996094 186.476562 136.96875 186.570312 136.9375 186.664062 C 136.90625 186.753906 136.871094 186.84375 136.832031 186.933594 C 136.796875 187.023438 136.757812 187.113281 136.714844 187.199219 C 136.671875 187.285156 136.625 187.371094 136.578125 187.457031 C 136.527344 187.539062 136.476562 187.621094 136.421875 187.703125 C 136.367188 187.785156 136.3125 187.863281 136.253906 187.9375 C 136.195312 188.015625 136.132812 188.089844 136.066406 188.164062 C 136.003906 188.234375 135.9375 188.304688 135.867188 188.375 C 135.800781 188.441406 135.730469 188.507812 135.65625 188.574219 C 135.582031 188.636719 135.507812 188.695312 135.429688 188.753906 C 135.351562 188.8125 135.273438 188.871094 135.191406 188.921875 C 135.113281 188.976562 135.027344 189.027344 134.945312 189.074219 C 134.859375 189.125 134.773438 189.167969 134.6875 189.210938 C 134.601562 189.253906 134.511719 189.292969 134.421875 189.328125 C 134.332031 189.363281 134.242188 189.398438 134.148438 189.429688 C 134.054688 189.457031 133.964844 189.484375 133.871094 189.511719 C 133.800781 189.527344 133.730469 189.542969 133.660156 189.558594 C 133.59375 189.570312 133.523438 189.585938 133.453125 189.59375 C 133.382812 189.605469 133.3125 189.617188 133.242188 189.625 C 133.171875 189.628906 133.101562 189.636719 133.03125 189.640625 C 132.957031 189.644531 132.886719 189.648438 132.816406 189.648438 C 132.746094 189.648438 132.675781 189.648438 132.605469 189.644531 C 132.535156 189.640625 132.460938 189.636719 132.390625 189.628906 C 132.320312 189.625 132.25 189.617188 132.179688 189.605469 C 132.109375 189.597656 132.039062 189.585938 131.972656 189.574219 C 131.902344 189.558594 131.832031 189.546875 131.761719 189.527344 C 131.695312 189.511719 131.625 189.496094 131.558594 189.476562 C 131.488281 189.453125 131.421875 189.433594 131.355469 189.410156 C 131.285156 189.386719 131.21875 189.363281 131.15625 189.335938 C 131.089844 189.308594 131.023438 189.28125 130.957031 189.253906 C 130.894531 189.222656 130.832031 189.191406 130.769531 189.160156 C 130.703125 189.128906 130.640625 189.09375 130.582031 189.058594 C 130.519531 189.023438 130.457031 188.984375 130.398438 188.949219 C 130.339844 188.910156 130.28125 188.871094 130.222656 188.828125 C 130.164062 188.785156 130.109375 188.742188 130.054688 188.699219 C 129.996094 188.65625 129.941406 188.609375 129.890625 188.5625 C 129.835938 188.515625 129.785156 188.46875 129.734375 188.421875 C 129.683594 188.371094 129.632812 188.320312 129.582031 188.269531 C 129.535156 188.21875 129.488281 188.164062 129.441406 188.109375 C 129.394531 188.058594 129.351562 188 129.308594 187.945312 C 129.265625 187.890625 129.222656 187.832031 129.179688 187.773438 C 129.140625 187.714844 129.101562 187.65625 129.0625 187.597656 C 129.027344 187.535156 128.988281 187.476562 128.953125 187.414062 C 128.917969 187.351562 128.886719 187.289062 128.855469 187.226562 C 128.824219 187.164062 128.792969 187.097656 128.765625 187.035156 C 128.734375 186.96875 128.707031 186.902344 128.683594 186.835938 C 128.65625 186.769531 128.632812 186.703125 128.609375 186.636719 C 128.589844 186.570312 128.566406 186.503906 128.550781 186.433594 C 128.53125 186.367188 128.511719 186.296875 128.496094 186.226562 C 128.480469 186.15625 128.46875 186.089844 128.453125 186.019531 C 128.441406 185.949219 128.433594 185.878906 128.421875 185.808594 C 128.414062 185.738281 128.40625 185.667969 128.402344 185.597656 C 128.394531 185.527344 128.394531 185.457031 128.390625 185.382812 C 128.386719 185.3125 128.386719 185.242188 128.390625 185.171875 C 128.390625 185.101562 128.394531 185.03125 128.398438 184.960938 C 128.402344 184.886719 128.410156 184.816406 128.417969 184.746094 C 128.425781 184.675781 128.4375 184.605469 128.449219 184.535156 C 128.460938 184.464844 128.472656 184.398438 128.488281 184.328125 C 128.503906 184.257812 128.519531 184.1875 128.539062 184.121094 C 128.558594 184.050781 128.578125 183.984375 128.597656 183.917969 C 128.621094 183.847656 128.644531 183.78125 128.667969 183.714844 C 128.695312 183.648438 128.71875 183.582031 128.75 183.519531 C 128.777344 183.453125 128.804688 183.390625 128.835938 183.324219 C 128.867188 183.261719 128.902344 183.199219 128.9375 183.136719 C 128.96875 183.074219 129.007812 183.011719 129.042969 182.953125 C 129.082031 182.894531 129.121094 182.832031 129.160156 182.773438 C 129.199219 182.714844 129.242188 182.660156 129.285156 182.601562 C 129.328125 182.546875 129.371094 182.492188 129.417969 182.4375 C 129.460938 182.382812 129.507812 182.328125 129.558594 182.277344 C 129.605469 182.226562 129.65625 182.175781 129.707031 182.125 C 129.757812 182.074219 129.808594 182.027344 129.863281 181.980469 C 129.914062 181.933594 129.96875 181.886719 130.023438 181.839844 C 130.078125 181.796875 130.136719 181.753906 130.191406 181.710938 C 130.25 181.671875 130.308594 181.628906 130.367188 181.589844 C 130.425781 181.550781 130.488281 181.515625 130.546875 181.480469 C 130.609375 181.441406 130.671875 181.40625 130.734375 181.375 C 130.796875 181.34375 130.859375 181.308594 130.925781 181.28125 C 130.988281 181.25 131.054688 181.222656 131.121094 181.195312 C 131.183594 181.167969 131.25 181.144531 131.320312 181.121094 C 131.386719 181.097656 131.453125 181.074219 131.519531 181.054688 Z M 131.519531 181.054688 " fill-opacity="1" fill-rule="nonzero" id="path18"/>
  <path xmlns="http://www.w3.org/2000/svg" fill="#fefefe" d="M 222.503906 168.742188 C 222.574219 168.738281 222.644531 168.738281 222.714844 168.738281 C 222.785156 168.738281 222.859375 168.738281 222.929688 168.742188 C 223 168.742188 223.070312 168.75 223.144531 168.753906 C 223.214844 168.761719 223.285156 168.769531 223.355469 168.78125 C 223.425781 168.789062 223.496094 168.800781 223.566406 168.8125 C 223.636719 168.828125 223.707031 168.84375 223.773438 168.859375 C 223.84375 168.875 223.914062 168.894531 223.980469 168.914062 C 224.050781 168.933594 224.117188 168.957031 224.183594 168.980469 C 224.25 169.003906 224.320312 169.027344 224.382812 169.054688 C 224.449219 169.082031 224.515625 169.109375 224.582031 169.140625 C 224.644531 169.167969 224.710938 169.199219 224.773438 169.234375 C 224.835938 169.265625 224.898438 169.300781 224.960938 169.335938 C 225.019531 169.371094 225.082031 169.410156 225.140625 169.449219 C 225.199219 169.488281 225.261719 169.527344 225.316406 169.570312 C 225.375 169.613281 225.433594 169.65625 225.488281 169.699219 C 225.542969 169.746094 225.597656 169.789062 225.652344 169.835938 C 225.703125 169.882812 225.757812 169.933594 225.808594 169.984375 C 225.859375 170.03125 225.910156 170.082031 225.957031 170.136719 C 226.003906 170.1875 226.050781 170.242188 226.097656 170.296875 C 226.144531 170.351562 226.1875 170.40625 226.230469 170.460938 C 226.277344 170.519531 226.316406 170.578125 226.359375 170.636719 C 226.398438 170.695312 226.4375 170.753906 226.472656 170.8125 C 226.511719 170.875 226.546875 170.9375 226.582031 171 C 226.617188 171.0625 226.648438 171.125 226.679688 171.1875 C 226.714844 171.25 226.742188 171.316406 226.769531 171.382812 C 226.800781 171.445312 226.828125 171.511719 226.851562 171.578125 C 226.875 171.648438 226.898438 171.714844 226.921875 171.78125 C 226.945312 171.847656 226.964844 171.917969 226.980469 171.988281 C 227 172.054688 227.015625 172.125 227.03125 172.195312 C 227.046875 172.265625 227.0625 172.332031 227.074219 172.402344 C 227.085938 172.472656 227.09375 172.542969 227.101562 172.617188 C 227.109375 172.6875 227.117188 172.757812 227.121094 172.828125 C 227.125 172.898438 227.128906 172.96875 227.132812 173.042969 C 227.132812 173.113281 227.132812 173.183594 227.128906 173.253906 C 227.128906 173.328125 227.125 173.398438 227.117188 173.46875 C 227.113281 173.539062 227.105469 173.609375 227.097656 173.679688 C 227.085938 173.753906 227.078125 173.824219 227.0625 173.894531 C 227.050781 173.960938 227.039062 174.03125 227.023438 174.101562 C 227.003906 174.171875 226.988281 174.242188 226.96875 174.308594 C 226.949219 174.378906 226.929688 174.445312 226.90625 174.511719 C 226.882812 174.582031 226.859375 174.648438 226.832031 174.714844 C 226.808594 174.78125 226.78125 174.847656 226.75 174.910156 C 226.722656 174.976562 226.691406 175.042969 226.660156 175.105469 C 226.628906 175.167969 226.59375 175.230469 226.558594 175.292969 C 226.523438 175.355469 226.484375 175.414062 226.449219 175.476562 C 226.410156 175.535156 226.371094 175.59375 226.328125 175.652344 C 226.289062 175.710938 226.246094 175.769531 226.203125 175.824219 C 226.15625 175.882812 226.113281 175.9375 226.066406 175.988281 C 226.019531 176.042969 225.972656 176.097656 225.921875 176.148438 C 225.875 176.199219 225.824219 176.25 225.773438 176.300781 C 225.71875 176.347656 225.667969 176.398438 225.613281 176.441406 C 225.558594 176.488281 225.503906 176.535156 225.449219 176.578125 C 225.390625 176.621094 225.335938 176.664062 225.277344 176.707031 C 225.21875 176.746094 225.160156 176.789062 225.101562 176.824219 C 225.039062 176.863281 224.976562 176.902344 224.917969 176.9375 C 224.855469 176.972656 224.792969 177.003906 224.726562 177.035156 C 224.664062 177.070312 224.601562 177.101562 224.535156 177.128906 C 224.46875 177.15625 224.40625 177.1875 224.339844 177.210938 C 224.273438 177.238281 224.203125 177.261719 224.136719 177.285156 C 224.070312 177.308594 224 177.328125 223.933594 177.347656 C 223.863281 177.367188 223.796875 177.382812 223.726562 177.398438 C 223.65625 177.414062 223.585938 177.429688 223.515625 177.441406 C 223.445312 177.453125 223.375 177.464844 223.304688 177.476562 C 223.234375 177.484375 223.164062 177.492188 223.09375 177.496094 C 222.996094 177.503906 222.902344 177.507812 222.804688 177.511719 C 222.707031 177.511719 222.609375 177.511719 222.515625 177.503906 C 222.417969 177.5 222.324219 177.492188 222.226562 177.480469 C 222.128906 177.46875 222.035156 177.453125 221.941406 177.4375 C 221.847656 177.417969 221.75 177.398438 221.65625 177.375 C 221.566406 177.351562 221.472656 177.324219 221.378906 177.292969 C 221.289062 177.261719 221.199219 177.230469 221.109375 177.195312 C 221.019531 177.160156 220.929688 177.121094 220.84375 177.078125 C 220.757812 177.035156 220.671875 176.992188 220.585938 176.945312 C 220.503906 176.898438 220.421875 176.847656 220.339844 176.792969 C 220.261719 176.742188 220.179688 176.683594 220.105469 176.628906 C 220.027344 176.570312 219.953125 176.507812 219.878906 176.445312 C 219.804688 176.382812 219.734375 176.316406 219.664062 176.25 C 219.597656 176.179688 219.53125 176.113281 219.46875 176.039062 C 219.402344 175.96875 219.339844 175.894531 219.28125 175.816406 C 219.222656 175.742188 219.164062 175.664062 219.113281 175.582031 C 219.058594 175.503906 219.007812 175.421875 218.957031 175.339844 C 218.910156 175.253906 218.863281 175.171875 218.820312 175.082031 C 218.777344 174.996094 218.738281 174.910156 218.699219 174.820312 C 218.660156 174.730469 218.628906 174.640625 218.597656 174.550781 C 218.566406 174.460938 218.535156 174.367188 218.511719 174.273438 C 218.484375 174.179688 218.464844 174.085938 218.445312 173.992188 C 218.425781 173.898438 218.410156 173.804688 218.398438 173.707031 C 218.382812 173.613281 218.375 173.515625 218.367188 173.417969 C 218.363281 173.324219 218.359375 173.226562 218.359375 173.128906 C 218.359375 173.035156 218.359375 172.9375 218.367188 172.839844 C 218.375 172.746094 218.382812 172.648438 218.394531 172.554688 C 218.40625 172.457031 218.421875 172.363281 218.441406 172.269531 C 218.460938 172.171875 218.484375 172.078125 218.507812 171.984375 C 218.53125 171.894531 218.5625 171.800781 218.59375 171.710938 C 218.625 171.617188 218.65625 171.527344 218.695312 171.4375 C 218.730469 171.351562 218.769531 171.261719 218.8125 171.175781 C 218.855469 171.089844 218.902344 171.003906 218.949219 170.921875 C 219 170.835938 219.050781 170.753906 219.105469 170.675781 C 219.160156 170.59375 219.214844 170.515625 219.273438 170.441406 C 219.332031 170.363281 219.394531 170.289062 219.457031 170.21875 C 219.523438 170.144531 219.589844 170.074219 219.65625 170.007812 C 219.726562 169.941406 219.796875 169.875 219.871094 169.8125 C 219.941406 169.746094 220.015625 169.6875 220.09375 169.628906 C 220.171875 169.570312 220.25 169.515625 220.328125 169.460938 C 220.410156 169.410156 220.492188 169.359375 220.578125 169.308594 C 220.660156 169.261719 220.746094 169.21875 220.832031 169.175781 C 220.917969 169.132812 221.007812 169.09375 221.097656 169.058594 C 221.1875 169.023438 221.277344 168.988281 221.367188 168.957031 C 221.460938 168.929688 221.550781 168.902344 221.644531 168.875 C 221.738281 168.851562 221.832031 168.832031 221.929688 168.8125 C 222.023438 168.796875 222.117188 168.78125 222.214844 168.769531 C 222.308594 168.757812 222.40625 168.75 222.503906 168.742188 Z M 222.503906 168.742188 " fill-opacity="1" fill-rule="nonzero" id="path19"/>
  <path xmlns="http://www.w3.org/2000/svg" fill="#fefefe" d="M 126.964844 168.746094 C 127.035156 168.742188 127.105469 168.738281 127.179688 168.738281 C 127.25 168.734375 127.320312 168.738281 127.390625 168.738281 C 127.464844 168.742188 127.535156 168.746094 127.605469 168.75 C 127.675781 168.757812 127.746094 168.765625 127.816406 168.773438 C 127.886719 168.785156 127.957031 168.796875 128.027344 168.808594 C 128.097656 168.820312 128.167969 168.835938 128.238281 168.851562 C 128.304688 168.867188 128.375 168.886719 128.445312 168.90625 C 128.511719 168.925781 128.582031 168.945312 128.648438 168.96875 C 128.714844 168.992188 128.78125 169.015625 128.847656 169.042969 C 128.914062 169.070312 128.980469 169.097656 129.042969 169.125 C 129.109375 169.15625 129.171875 169.1875 129.238281 169.21875 C 129.300781 169.25 129.363281 169.285156 129.425781 169.320312 C 129.488281 169.355469 129.546875 169.394531 129.605469 169.429688 C 129.667969 169.46875 129.726562 169.507812 129.785156 169.550781 C 129.84375 169.59375 129.898438 169.636719 129.953125 169.679688 C 130.011719 169.722656 130.066406 169.769531 130.121094 169.816406 C 130.171875 169.863281 130.226562 169.910156 130.277344 169.960938 C 130.328125 170.007812 130.378906 170.058594 130.425781 170.109375 C 130.476562 170.164062 130.523438 170.214844 130.570312 170.269531 C 130.617188 170.324219 130.660156 170.378906 130.703125 170.433594 C 130.75 170.492188 130.789062 170.550781 130.832031 170.609375 C 130.871094 170.664062 130.910156 170.726562 130.949219 170.785156 C 130.988281 170.84375 131.023438 170.90625 131.058594 170.96875 C 131.09375 171.03125 131.125 171.09375 131.160156 171.15625 C 131.191406 171.222656 131.222656 171.285156 131.25 171.351562 C 131.277344 171.414062 131.304688 171.480469 131.332031 171.546875 C 131.355469 171.613281 131.378906 171.679688 131.402344 171.75 C 131.425781 171.816406 131.445312 171.882812 131.464844 171.953125 C 131.484375 172.023438 131.5 172.089844 131.515625 172.160156 C 131.53125 172.230469 131.546875 172.300781 131.558594 172.371094 C 131.570312 172.441406 131.582031 172.511719 131.589844 172.582031 C 131.597656 172.652344 131.605469 172.722656 131.609375 172.792969 C 131.617188 172.863281 131.621094 172.9375 131.621094 173.007812 C 131.621094 173.078125 131.625 173.148438 131.621094 173.21875 C 131.621094 173.292969 131.617188 173.363281 131.613281 173.433594 C 131.605469 173.503906 131.597656 173.574219 131.589844 173.644531 C 131.582031 173.714844 131.570312 173.789062 131.558594 173.859375 C 131.546875 173.925781 131.535156 173.996094 131.519531 174.066406 C 131.503906 174.136719 131.488281 174.207031 131.46875 174.273438 C 131.449219 174.34375 131.429688 174.410156 131.40625 174.480469 C 131.382812 174.546875 131.359375 174.613281 131.335938 174.679688 C 131.308594 174.746094 131.285156 174.8125 131.253906 174.878906 C 131.226562 174.941406 131.195312 175.007812 131.164062 175.070312 C 131.132812 175.136719 131.101562 175.199219 131.066406 175.261719 C 131.03125 175.320312 130.992188 175.382812 130.957031 175.445312 C 130.917969 175.503906 130.878906 175.5625 130.839844 175.621094 C 130.796875 175.679688 130.757812 175.738281 130.710938 175.792969 C 130.667969 175.851562 130.625 175.90625 130.578125 175.960938 C 130.53125 176.015625 130.484375 176.066406 130.4375 176.121094 C 130.386719 176.171875 130.335938 176.222656 130.285156 176.269531 C 130.234375 176.320312 130.183594 176.371094 130.128906 176.417969 C 130.074219 176.464844 130.019531 176.507812 129.964844 176.554688 C 129.910156 176.597656 129.851562 176.640625 129.792969 176.683594 C 129.738281 176.722656 129.679688 176.761719 129.617188 176.800781 C 129.558594 176.839844 129.496094 176.878906 129.4375 176.914062 C 129.375 176.949219 129.3125 176.984375 129.25 177.015625 C 129.1875 177.046875 129.121094 177.078125 129.058594 177.109375 C 128.992188 177.136719 128.925781 177.167969 128.859375 177.191406 C 128.792969 177.21875 128.726562 177.242188 128.660156 177.265625 C 128.59375 177.289062 128.523438 177.3125 128.457031 177.332031 C 128.386719 177.351562 128.320312 177.367188 128.25 177.386719 C 128.179688 177.402344 128.109375 177.417969 128.039062 177.429688 C 127.972656 177.441406 127.902344 177.453125 127.832031 177.464844 C 127.757812 177.472656 127.6875 177.480469 127.617188 177.488281 C 127.523438 177.496094 127.425781 177.5 127.328125 177.503906 C 127.234375 177.503906 127.136719 177.503906 127.039062 177.5 C 126.945312 177.496094 126.847656 177.488281 126.753906 177.476562 C 126.65625 177.464844 126.5625 177.453125 126.464844 177.433594 C 126.371094 177.417969 126.277344 177.398438 126.183594 177.375 C 126.089844 177.351562 125.996094 177.324219 125.90625 177.296875 C 125.8125 177.265625 125.722656 177.234375 125.632812 177.199219 C 125.542969 177.164062 125.453125 177.125 125.367188 177.082031 C 125.28125 177.042969 125.195312 177 125.109375 176.953125 C 125.027344 176.90625 124.945312 176.855469 124.863281 176.804688 C 124.78125 176.75 124.703125 176.695312 124.625 176.640625 C 124.546875 176.582031 124.472656 176.519531 124.398438 176.457031 C 124.324219 176.394531 124.253906 176.332031 124.183594 176.265625 C 124.117188 176.195312 124.050781 176.128906 123.984375 176.054688 C 123.921875 175.984375 123.859375 175.910156 123.796875 175.835938 C 123.738281 175.757812 123.679688 175.683594 123.625 175.601562 C 123.570312 175.523438 123.519531 175.441406 123.472656 175.359375 C 123.421875 175.277344 123.375 175.191406 123.332031 175.105469 C 123.289062 175.019531 123.246094 174.933594 123.207031 174.84375 C 123.171875 174.753906 123.136719 174.664062 123.105469 174.574219 C 123.070312 174.484375 123.042969 174.390625 123.015625 174.300781 C 122.992188 174.207031 122.96875 174.113281 122.949219 174.019531 C 122.929688 173.925781 122.914062 173.828125 122.898438 173.734375 C 122.886719 173.636719 122.875 173.542969 122.867188 173.445312 C 122.859375 173.351562 122.855469 173.253906 122.855469 173.15625 C 122.855469 173.0625 122.855469 172.964844 122.863281 172.867188 C 122.867188 172.773438 122.878906 172.675781 122.890625 172.582031 C 122.902344 172.484375 122.914062 172.390625 122.933594 172.296875 C 122.953125 172.199219 122.972656 172.105469 122.996094 172.011719 C 123.023438 171.921875 123.050781 171.828125 123.078125 171.734375 C 123.109375 171.644531 123.144531 171.554688 123.179688 171.464844 C 123.214844 171.375 123.253906 171.289062 123.296875 171.203125 C 123.339844 171.113281 123.386719 171.03125 123.433594 170.945312 C 123.480469 170.863281 123.53125 170.78125 123.585938 170.699219 C 123.636719 170.621094 123.695312 170.539062 123.753906 170.464844 C 123.808594 170.386719 123.871094 170.3125 123.933594 170.238281 C 123.996094 170.167969 124.0625 170.097656 124.132812 170.027344 C 124.199219 169.960938 124.269531 169.894531 124.34375 169.832031 C 124.414062 169.765625 124.488281 169.707031 124.566406 169.648438 C 124.640625 169.585938 124.71875 169.53125 124.800781 169.476562 C 124.878906 169.425781 124.960938 169.375 125.046875 169.324219 C 125.128906 169.277344 125.214844 169.230469 125.300781 169.1875 C 125.386719 169.144531 125.472656 169.105469 125.5625 169.070312 C 125.652344 169.03125 125.742188 169 125.832031 168.96875 C 125.925781 168.9375 126.015625 168.910156 126.109375 168.882812 C 126.203125 168.859375 126.296875 168.835938 126.390625 168.820312 C 126.488281 168.800781 126.582031 168.785156 126.675781 168.773438 C 126.773438 168.761719 126.867188 168.75 126.964844 168.746094 Z M 126.964844 168.746094 " fill-opacity="1" fill-rule="nonzero" id="path20"/>
  <path xmlns="http://www.w3.org/2000/svg" fill="#91162d" d="M 187.015625 8.976562 C 195.886719 8.148438 221.082031 9.503906 228.234375 14.984375 C 229.367188 15.851562 229.996094 16.691406 230.476562 18.03125 C 232.175781 22.738281 232.558594 28.5625 233.300781 33.511719 C 234.875 44.015625 236.335938 54.535156 237.679688 65.074219 C 228.617188 60.042969 219.210938 56.585938 209.003906 54.757812 C 207.410156 54.488281 205.8125 54.253906 204.210938 54.046875 C 202.609375 53.84375 201.003906 53.667969 199.398438 53.527344 C 197.789062 53.386719 196.175781 53.273438 194.566406 53.195312 C 192.953125 53.117188 191.339844 53.066406 189.722656 53.050781 C 188.109375 53.035156 186.496094 53.050781 184.878906 53.097656 C 183.265625 53.140625 181.652344 53.21875 180.042969 53.328125 C 178.429688 53.4375 176.824219 53.578125 175.21875 53.75 C 173.613281 53.925781 172.011719 54.128906 170.414062 54.363281 C 167.347656 54.824219 164.394531 56.0625 161.34375 56.429688 C 158.007812 56.832031 154.617188 56.46875 151.234375 56.910156 C 153.941406 48.382812 162.332031 18.628906 166.546875 13.796875 C 170.363281 9.425781 181.601562 9.34375 187.015625 8.976562 Z M 187.015625 8.976562 " fill-opacity="1" fill-rule="nonzero" id="path21"/>
  <path xmlns="http://www.w3.org/2000/svg" fill="#ffffff" d="M 85.746094 262.6875 C 89.417969 262.402344 93.375 262.914062 96.875 264.054688 C 104.984375 266.699219 110.003906 272.359375 113.765625 279.8125 C 116.265625 284.769531 120.511719 292.125 118.496094 297.777344 C 117.917969 299.40625 116.75 300.8125 115.144531 301.5 C 115.058594 301.539062 114.976562 301.574219 114.890625 301.605469 C 114.804688 301.636719 114.71875 301.667969 114.628906 301.695312 C 114.542969 301.722656 114.453125 301.746094 114.367188 301.769531 C 114.277344 301.792969 114.1875 301.816406 114.097656 301.835938 C 114.007812 301.855469 113.917969 301.871094 113.828125 301.886719 C 113.738281 301.902344 113.644531 301.914062 113.554688 301.921875 C 113.464844 301.929688 113.371094 301.9375 113.28125 301.945312 C 113.1875 301.949219 113.097656 301.953125 113.003906 301.953125 C 112.914062 301.953125 112.820312 301.953125 112.730469 301.949219 C 112.636719 301.945312 112.546875 301.9375 112.457031 301.925781 C 112.363281 301.917969 112.273438 301.90625 112.183594 301.890625 C 112.089844 301.878906 112 301.863281 111.910156 301.84375 C 111.820312 301.828125 111.730469 301.804688 111.644531 301.78125 C 111.554688 301.761719 111.464844 301.738281 111.378906 301.710938 C 111.289062 301.683594 111.203125 301.652344 111.117188 301.621094 C 111.03125 301.589844 110.945312 301.554688 110.863281 301.519531 C 106.703125 299.789062 104.945312 293.925781 104.519531 289.820312 C 104.359375 288.253906 104.546875 286.242188 103.898438 284.796875 C 103.609375 284.148438 103.273438 283.90625 102.621094 283.679688 C 102.046875 283.875 101.753906 284.023438 101.410156 284.546875 C 98.554688 288.875 103.417969 300.953125 104.417969 305.941406 C 104.90625 308.367188 105.089844 311.382812 103.582031 313.488281 C 102.652344 314.792969 101.210938 315.398438 99.667969 315.640625 C 97.742188 315.945312 95.796875 315.496094 94.261719 314.265625 C 88.960938 310.015625 87.578125 299.53125 86.84375 293.214844 C 86.804688 293.085938 86.785156 292.949219 86.726562 292.828125 C 86.503906 292.324219 86.136719 292.003906 85.609375 291.835938 C 84.992188 291.644531 84.746094 291.773438 84.214844 292.03125 C 84.015625 292.335938 83.890625 292.613281 83.8125 292.96875 C 82.734375 297.855469 85.066406 305.929688 87.117188 310.390625 C 87.964844 312.242188 89.039062 313.945312 90.121094 315.660156 C 88.457031 316.246094 86.953125 316.535156 85.195312 316.183594 C 78.046875 314.761719 75.421875 305.351562 74.769531 299.179688 C 74.53125 296.921875 75.097656 292.917969 73.824219 291.050781 C 73.363281 290.835938 73.179688 290.703125 72.667969 290.945312 C 72.117188 291.199219 71.640625 291.824219 71.402344 292.367188 C 70.9375 293.421875 71.113281 294.953125 71.144531 296.085938 C 71.308594 301.925781 72.476562 306.972656 74.671875 312.367188 C 72.832031 311.976562 71.3125 311.269531 69.867188 310.050781 C 65.832031 306.664062 64.597656 300.933594 64.203125 295.933594 C 63.507812 287.167969 65.691406 274.996094 71.585938 268.152344 C 75.136719 264.03125 80.578125 263.03125 85.746094 262.6875 Z M 85.746094 262.6875 " fill-opacity="1" fill-rule="nonzero" id="path22"/>
  <path xmlns="http://www.w3.org/2000/svg" fill="#ffffff" d="M 289.289062 262.683594 C 293.597656 262.277344 299.527344 263.046875 303.328125 265.230469 C 308.203125 268.03125 310.746094 274.5 312.199219 279.617188 C 314.425781 287.480469 315.015625 299.203125 310.828125 306.550781 C 309.089844 309.613281 306.683594 311.296875 303.347656 312.226562 C 305.046875 307.390625 306.25 302.828125 306.273438 297.652344 C 306.277344 296.265625 306.546875 292.519531 305.386719 291.65625 C 304.851562 291.253906 304.53125 291.308594 303.90625 291.355469 C 303.683594 291.503906 303.398438 291.585938 303.238281 291.800781 C 302.785156 292.425781 302.96875 295.71875 302.933594 296.578125 C 302.78125 300.613281 302.222656 304.757812 300.683594 308.519531 C 299.4375 311.554688 297.359375 314.5625 294.195312 315.796875 C 291.761719 316.738281 289.390625 316.546875 287.039062 315.566406 C 290.574219 310.007812 292.253906 304.300781 292.9375 297.769531 C 293.097656 296.210938 293.375 294.292969 292.953125 292.765625 C 292.769531 292.097656 292.257812 291.832031 291.707031 291.488281 C 291.179688 291.613281 290.804688 291.808594 290.335938 292.070312 C 289.246094 293.535156 289.335938 297.386719 289.0625 299.25 C 288.375 303.972656 286.8125 311.515625 282.644531 314.464844 C 281.164062 315.507812 279.582031 315.921875 277.785156 315.59375 C 276.265625 315.316406 274.765625 314.714844 273.894531 313.375 C 270.902344 308.769531 275.851562 298.460938 276.992188 293.570312 C 277.453125 291.585938 278.359375 286.164062 276.933594 284.46875 C 276.589844 284.058594 276.304688 283.902344 275.761719 283.945312 C 275.09375 284 274.753906 284.433594 274.519531 285.007812 C 273.933594 286.453125 274.03125 288.347656 273.855469 289.902344 C 273.523438 292.738281 272.148438 296.554688 270.476562 298.917969 C 269.371094 300.480469 267.71875 301.730469 265.777344 301.972656 C 264.246094 302.160156 262.769531 301.605469 261.597656 300.625 C 260.167969 299.429688 259.515625 297.738281 259.367188 295.914062 C 258.832031 289.242188 265.78125 276.824219 270.0625 271.867188 C 275.214844 265.898438 281.511719 263.277344 289.289062 262.683594 Z M 289.289062 262.683594 " fill-opacity="1" fill-rule="nonzero" id="path23"/>
  <path xmlns="http://www.w3.org/2000/svg" fill="#ffffff" d="M 174.785156 324.859375 C 174.945312 324.902344 175.074219 325.019531 175.214844 325.113281 C 176.109375 333.054688 176.265625 341.160156 176.621094 349.144531 C 173.449219 351.179688 169.613281 352.773438 166.117188 354.195312 C 150.992188 360.335938 129.378906 363.636719 113.988281 357.117188 C 112.542969 356.207031 111.769531 355.410156 110.925781 353.914062 C 110.730469 350.066406 112.171875 346.039062 114.027344 342.707031 C 119.835938 332.285156 130.382812 327.871094 141.902344 327.222656 C 144.097656 327.101562 148.292969 327.621094 150.132812 326.890625 C 150.816406 326.621094 151.222656 325.640625 151.5625 325.03125 C 153.296875 325.875 155.039062 326.535156 156.925781 326.957031 C 162.605469 328.226562 169.738281 328.023438 174.785156 324.859375 Z M 174.785156 324.859375 " fill-opacity="1" fill-rule="nonzero" id="path24"/>
  <path xmlns="http://www.w3.org/2000/svg" fill="#ffffff" d="M 200.832031 324.527344 C 202.753906 325.257812 204.269531 326.269531 206.332031 326.816406 C 212.105469 328.34375 219.410156 328.433594 224.691406 325.375 C 225.128906 325.972656 225.507812 326.480469 226.238281 326.753906 C 227.738281 327.3125 230.394531 327.003906 232.074219 327.140625 C 234.28125 327.316406 236.472656 327.597656 238.652344 327.984375 C 246.324219 329.421875 253.222656 332.769531 257.691406 339.359375 C 260.054688 342.84375 262.410156 348.328125 261.460938 352.613281 C 260.984375 354.761719 259.746094 356.003906 257.933594 357.128906 C 256.683594 357.875 255.1875 358.394531 253.785156 358.785156 C 237.398438 363.398438 212.695312 356.902344 198.121094 348.71875 C 197.992188 345.769531 199.332031 328.484375 200.027344 325.828125 C 200.164062 325.308594 200.484375 324.925781 200.832031 324.527344 Z M 200.832031 324.527344 " fill-opacity="1" fill-rule="nonzero" id="path25"/>
  <path xmlns="http://www.w3.org/2000/svg" fill="#721753" d="M 153.644531 273.335938 C 158.761719 275.554688 164.140625 277.136719 169.519531 278.582031 C 169.222656 288.722656 169.554688 299.027344 169.847656 309.175781 L 170.09375 317.386719 C 170.140625 318.703125 170.394531 320.207031 170.230469 321.492188 C 170.175781 321.914062 169.761719 322.027344 169.433594 322.257812 C 169.148438 322.355469 168.863281 322.445312 168.574219 322.53125 C 168.285156 322.613281 167.992188 322.691406 167.699219 322.761719 C 167.410156 322.832031 167.113281 322.898438 166.820312 322.953125 C 166.523438 323.011719 166.226562 323.0625 165.929688 323.105469 C 165.632812 323.148438 165.332031 323.183594 165.03125 323.214844 C 164.734375 323.246094 164.433594 323.265625 164.132812 323.28125 C 163.832031 323.300781 163.53125 323.308594 163.230469 323.3125 C 162.929688 323.3125 162.628906 323.308594 162.328125 323.296875 C 162.027344 323.285156 161.726562 323.265625 161.425781 323.242188 C 161.128906 323.214844 160.828125 323.183594 160.53125 323.140625 C 160.230469 323.101562 159.933594 323.054688 159.636719 323.003906 C 159.339844 322.949219 159.046875 322.890625 158.753906 322.824219 C 158.460938 322.757812 158.167969 322.683594 157.878906 322.605469 C 157.585938 322.523438 157.300781 322.4375 157.011719 322.34375 C 156.726562 322.25 156.441406 322.152344 156.160156 322.042969 C 155.878906 321.9375 155.601562 321.824219 155.324219 321.707031 C 153.933594 305.628906 153.78125 289.457031 153.644531 273.335938 Z M 153.644531 273.335938 " fill-opacity="1" fill-rule="nonzero" id="path26"/>
  <path xmlns="http://www.w3.org/2000/svg" fill="#721753" d="M 222.050781 275.132812 C 222.34375 275.15625 222.1875 275.109375 222.488281 275.367188 C 222.628906 277.121094 222.34375 278.941406 222.25 280.699219 C 222.074219 284.132812 221.917969 287.570312 221.785156 291.003906 C 221.351562 301.515625 221.292969 312.164062 220.484375 322.644531 C 216.34375 323.800781 211.511719 323.660156 207.378906 322.554688 C 206.984375 322.441406 206.589844 322.261719 206.203125 322.121094 C 206.125 321.992188 206.015625 321.878906 205.960938 321.742188 C 205.609375 320.820312 206.59375 283.457031 206.636719 279.523438 C 211.789062 278.753906 217.265625 277.175781 222.050781 275.132812 Z M 222.050781 275.132812 " fill-opacity="1" fill-rule="nonzero" id="path27"/>
  <path xmlns="http://www.w3.org/2000/svg" fill="#721753" d="M 279.203125 195.042969 C 280.65625 196.53125 281.917969 199.8125 282.824219 201.75 C 289.761719 216.527344 294.003906 231.832031 297.019531 247.832031 C 295.753906 247.601562 294.449219 247.515625 293.175781 247.378906 C 290.710938 247.300781 288.257812 247.429688 285.816406 247.753906 C 285.203125 239.546875 280.03125 220.1875 275.0625 214.011719 C 277.9375 207.890625 278.898438 201.738281 279.203125 195.042969 Z M 279.203125 195.042969 " fill-opacity="1" fill-rule="nonzero" id="path28"/>
  <path xmlns="http://www.w3.org/2000/svg" fill="#721753" d="M 98.46875 197.75 C 98.863281 199.53125 98.800781 201.679688 99.027344 203.535156 C 99.535156 207.695312 100.832031 211.410156 102.464844 215.238281 C 98.199219 220.851562 93.316406 240.058594 91.996094 247.617188 C 89.753906 247.457031 87.5625 247.339844 85.3125 247.421875 C 83.859375 247.566406 82.410156 247.726562 80.960938 247.898438 C 82.898438 232.941406 90.742188 210.6875 98.46875 197.75 Z M 98.46875 197.75 " fill-opacity="1" fill-rule="nonzero" id="path29"/>
  <path xmlns="http://www.w3.org/2000/svg" fill="#ffffff" d="M 83.929688 252.578125 C 87.390625 252.199219 91.269531 252.351562 94.625 253.339844 C 96.699219 253.949219 98.71875 254.96875 99.769531 256.945312 C 100.332031 258.003906 100.257812 259.226562 99.90625 260.339844 C 99.292969 260.777344 98.269531 260.230469 97.621094 259.996094 C 94.378906 258.835938 91.605469 258.449219 88.160156 258.359375 C 82.632812 258.488281 78.203125 259.667969 73.210938 262.0625 L 72.707031 258.773438 L 72.800781 258.574219 C 73.054688 258.035156 73.300781 257.488281 73.664062 257.015625 C 76.003906 253.953125 80.351562 253.105469 83.929688 252.578125 Z M 83.929688 252.578125 " fill-opacity="1" fill-rule="nonzero" id="path30"/>
  <path xmlns="http://www.w3.org/2000/svg" fill="#ffffff" d="M 288.222656 252.589844 C 291.417969 252.140625 295.128906 252.433594 298.242188 253.261719 C 301.257812 254.066406 303.804688 255.308594 305.433594 258.097656 C 305.492188 259.378906 305.445312 260.671875 305.433594 261.960938 C 302.582031 260.503906 299.679688 259.460938 296.542969 258.820312 C 292.066406 257.976562 286.742188 258.195312 282.339844 259.378906 C 281.179688 259.695312 280.101562 260.289062 278.960938 260.570312 C 278.683594 260.289062 278.621094 260.078125 278.566406 259.699219 C 278.378906 258.363281 278.515625 257.082031 279.382812 256.007812 C 281.347656 253.574219 285.308594 252.972656 288.222656 252.589844 Z M 288.222656 252.589844 " fill-opacity="1" fill-rule="nonzero" id="path31"/>
</g></svg>